<?xml version="1.0" encoding="UTF-8" standalone="no"?>
<!DOCTYPE svg PUBLIC "-//W3C//DTD SVG 1.1//EN" "http://www.w3.org/Graphics/SVG/1.1/DTD/svg11.dtd">
<svg version="1.1" xmlns="http://www.w3.org/2000/svg" xmlns:xlink="http://www.w3.org/1999/xlink" preserveAspectRatio="xMidYMid meet" viewBox="196.76807294978835 1.293922607253819 247.22142985799923 266.95760933094647" width="247.22" height="266.96"><defs><path d="M291.73 139.02C290.31 139.02 279.01 139.02 277.6 139.02C275.36 138.96 273.49 140.73 273.43 142.98C273.43 142.99 273.43 143 273.43 143C273.43 144.42 273.43 155.72 273.43 157.13C273.43 159.38 275.25 161.2 277.49 161.2C278.91 161.2 290.23 161.2 291.65 161.2C293.89 161.24 295.75 159.46 295.79 157.21C295.79 157.19 295.79 157.16 295.79 157.13C295.79 156.19 295.79 151.48 295.79 143C294.56 140.35 293.2 139.02 291.73 139.02Z" id="c3gFn3zoKP"></path><path d="M291.73 174.29C290.31 174.29 279.01 174.29 277.6 174.29C275.37 174.22 273.51 175.97 273.43 178.2C273.43 178.25 273.43 178.3 273.43 178.35C273.43 179.77 273.43 191.07 273.43 192.48C273.43 194.73 275.25 196.55 277.49 196.55C278.91 196.55 290.23 196.55 291.65 196.55C293.89 196.55 295.71 194.73 295.71 192.48C295.71 191.54 295.71 186.83 295.71 178.35C294.55 175.65 293.22 174.29 291.73 174.29Z" id="gwuJEkRfy"></path><path d="M331.14 178.35C331.15 176.12 329.36 174.31 327.13 174.29C327.12 174.29 327.11 174.29 327.1 174.29C325.69 174.29 314.36 174.29 312.95 174.29C310.72 174.28 308.9 176.07 308.89 178.3C308.89 178.32 308.89 178.34 308.89 178.35C308.89 179.77 308.89 191.07 308.89 192.48C308.89 194.73 310.7 196.55 312.95 196.55C314.36 196.55 325.69 196.55 327.1 196.55C329.34 196.53 331.14 194.72 331.14 192.48C331.14 189.66 331.14 181.18 331.14 178.35Z" id="b1eV9qGdK"></path><path d="M362.58 174.29C362.57 174.29 362.57 174.29 362.56 174.29C361.13 174.29 349.72 174.29 348.3 174.29C346.05 174.29 344.24 176.11 344.24 178.35C344.24 179.77 344.24 191.07 344.24 192.48C344.24 194.73 346.05 196.55 348.3 196.55C349.71 196.55 361.04 196.55 362.45 196.55C364.7 196.59 366.55 194.81 366.59 192.56C366.59 192.54 366.59 192.53 366.59 192.51C366.59 191.57 366.59 186.85 366.59 178.35C365.41 175.66 364.07 174.3 362.58 174.29Z" id="a3zbG5dqQS"></path><path d="M345.19 86.7L345.23 87.42L345.31 88.13L345.41 88.84L345.55 89.53L345.7 90.22L345.89 90.89L346.1 91.56L346.34 92.21L346.59 92.85L346.88 93.47L347.19 94.09L347.52 94.69L347.87 95.27L348.24 95.85L348.64 96.4L349.05 96.94L349.49 97.46L349.94 97.97L350.41 98.45L350.91 98.92L351.41 99.37L351.94 99.8L352.48 100.21L353.04 100.6L353.62 100.97L354.2 101.32L354.81 101.64L355.42 101.95L356.05 102.22L356.7 102.48L357.35 102.71L358.02 102.91L358.69 103.09L359.38 103.24L360.07 103.37L360.78 103.47L361.49 103.54L362.22 103.58L362.95 103.59L374.1 103.59L374.83 103.58L375.55 103.54L376.26 103.46L376.96 103.36L377.66 103.24L378.34 103.08L379.02 102.91L379.68 102.7L380.33 102.47L380.97 102.21L381.6 101.94L382.21 101.63L382.81 101.31L383.4 100.96L383.97 100.59L384.53 100.2L385.07 99.79L385.59 99.36L386.1 98.91L386.59 98.44L387.06 97.95L387.51 97.45L387.94 96.93L388.35 96.39L388.75 95.83L389.12 95.26L389.47 94.68L389.79 94.08L390.1 93.46L390.38 92.84L390.63 92.2L390.87 91.55L391.07 90.88L391.25 90.21L391.41 89.52L391.54 88.83L391.64 88.13L391.71 87.42L391.76 86.7L391.77 85.97L391.77 64.39L392.42 64.42L393.06 64.48L393.69 64.56L394.31 64.66L394.93 64.79L395.53 64.95L396.13 65.12L396.71 65.32L397.29 65.54L397.85 65.78L398.41 66.04L398.95 66.32L399.48 66.62L399.99 66.94L400.5 67.28L400.98 67.64L401.46 68.01L401.92 68.4L402.36 68.81L402.79 69.24L403.21 69.68L403.6 70.13L403.98 70.6L404.34 71.09L404.69 71.58L405.01 72.1L405.32 72.62L405.61 73.16L405.87 73.7L406.12 74.26L406.34 74.84L406.55 75.42L406.73 76.01L406.89 76.61L407.03 77.22L407.14 77.83L407.23 78.46L407.3 79.09L407.34 79.73L407.35 80.38L407.35 206.98L407.34 207.64L407.3 208.29L407.23 208.94L407.14 209.58L407.03 210.21L406.89 210.83L406.72 211.44L406.54 212.05L406.33 212.64L406.1 213.22L405.84 213.79L405.57 214.35L405.27 214.9L404.96 215.43L404.62 215.95L404.27 216.46L403.89 216.95L403.5 217.42L403.09 217.89L402.67 218.33L402.22 218.76L401.76 219.17L401.29 219.56L400.8 219.94L400.3 220.3L399.78 220.63L399.25 220.95L398.7 221.25L398.14 221.53L397.57 221.79L396.99 222.02L396.4 222.23L395.8 222.42L395.19 222.59L394.57 222.73L393.94 222.85L393.3 222.94L392.65 223.01L392 223.06L391.33 223.07L248.74 223.07L248.08 223.06L247.43 223.01L246.78 222.94L246.14 222.85L245.51 222.73L244.89 222.59L244.28 222.42L243.68 222.23L243.08 222.02L242.5 221.79L241.93 221.53L241.38 221.25L240.83 220.95L240.3 220.63L239.78 220.3L239.28 219.94L238.79 219.56L238.31 219.17L237.85 218.76L237.41 218.33L236.99 217.89L236.58 217.42L236.19 216.95L235.81 216.46L235.46 215.95L235.12 215.43L234.81 214.9L234.51 214.35L234.24 213.79L233.98 213.22L233.75 212.64L233.54 212.05L233.35 211.44L233.19 210.83L233.05 210.21L232.93 209.58L232.84 208.94L232.78 208.29L232.74 207.64L232.72 206.98L232.72 80.38L232.74 79.73L232.78 79.1L232.85 78.46L232.94 77.84L233.05 77.22L233.18 76.62L233.34 76.02L233.53 75.43L233.73 74.85L233.95 74.28L234.2 73.72L234.46 73.17L234.75 72.63L235.05 72.11L235.38 71.6L235.72 71.1L236.08 70.62L236.46 70.15L236.85 69.69L237.27 69.25L237.69 68.83L238.14 68.42L238.59 68.03L239.07 67.65L239.56 67.3L240.06 66.96L240.57 66.64L241.1 66.34L241.64 66.05L242.19 65.79L242.75 65.55L243.33 65.33L243.91 65.13L244.5 64.96L245.11 64.8L245.72 64.67L246.34 64.56L246.97 64.48L247.61 64.42L248.25 64.39L248.25 85.97L248.27 86.7L248.31 87.42L248.39 88.13L248.49 88.83L248.62 89.52L248.77 90.21L248.95 90.88L249.16 91.55L249.39 92.2L249.65 92.84L249.93 93.46L250.23 94.08L250.56 94.68L250.91 95.26L251.28 95.83L251.67 96.39L252.08 96.93L252.52 97.45L252.97 97.95L253.44 98.44L253.93 98.91L254.43 99.36L254.96 99.79L255.5 100.2L256.05 100.59L256.63 100.96L257.21 101.31L257.81 101.63L258.43 101.94L259.06 102.21L259.7 102.47L260.35 102.7L261.01 102.91L261.68 103.08L262.37 103.24L263.06 103.36L263.77 103.46L264.48 103.54L265.2 103.58L265.93 103.59L277.11 103.59L277.84 103.58L278.56 103.54L279.27 103.47L279.98 103.37L280.67 103.24L281.36 103.09L282.04 102.91L282.7 102.71L283.36 102.48L284 102.22L284.63 101.95L285.24 101.64L285.85 101.32L286.44 100.97L287.01 100.6L287.57 100.21L288.11 99.8L288.64 99.37L289.15 98.92L289.64 98.45L290.11 97.97L290.57 97.46L291 96.94L291.42 96.4L291.81 95.85L292.18 95.27L292.54 94.69L292.87 94.09L293.17 93.47L293.46 92.85L293.72 92.21L293.95 91.56L294.16 90.89L294.35 90.22L294.51 89.53L294.64 88.84L294.74 88.13L294.82 87.42L294.87 86.7L294.88 85.97L294.88 64.31L345.17 64.31L345.17 85.97L345.19 86.7ZM259.77 126.78L259.49 126.8L259.21 126.83L258.93 126.87L258.66 126.92L258.39 126.98L258.13 127.05L257.87 127.13L257.61 127.22L257.36 127.32L257.12 127.43L256.88 127.55L256.64 127.68L256.41 127.81L256.19 127.96L255.97 128.11L255.76 128.27L255.56 128.44L255.36 128.62L255.17 128.8L254.98 128.99L254.81 129.19L254.64 129.4L254.48 129.61L254.32 129.82L254.18 130.05L254.04 130.28L253.91 130.51L253.8 130.75L253.69 131L253.59 131.25L253.5 131.5L253.41 131.76L253.34 132.03L253.28 132.3L253.23 132.57L253.19 132.84L253.17 133.12L253.15 133.4L253.14 133.69L253.14 199.08L253.15 199.37L253.17 199.65L253.19 199.93L253.23 200.2L253.28 200.48L253.34 200.74L253.41 201.01L253.5 201.27L253.59 201.52L253.69 201.77L253.8 202.02L253.91 202.26L254.04 202.49L254.18 202.72L254.32 202.95L254.48 203.16L254.64 203.37L254.81 203.58L254.98 203.78L255.17 203.97L255.36 204.15L255.56 204.33L255.76 204.5L255.97 204.66L256.19 204.81L256.41 204.96L256.64 205.09L256.88 205.22L257.12 205.34L257.36 205.45L257.61 205.55L257.87 205.64L258.13 205.72L258.39 205.79L258.66 205.85L258.93 205.9L259.21 205.94L259.49 205.97L259.77 205.99L260.05 205.99L379.69 205.99L379.88 205.99L380.07 205.98L380.26 205.95L380.44 205.92L380.63 205.88L380.82 205.84L381 205.78L381.19 205.72L381.37 205.64L381.55 205.56L381.73 205.47L381.91 205.37L382.09 205.26L382.27 205.15L382.45 205.02L382.63 204.89L382.8 204.74L382.98 204.59L383.15 204.43L383.32 204.27L383.5 204.09L383.67 203.9L383.84 203.71L384.01 203.51L384.18 203.29L384.34 203.07L384.51 202.84L384.68 202.61L384.84 202.36L385.01 202.11L385.17 201.84L385.33 201.57L385.49 201.29L385.65 201L385.81 200.7L385.97 200.4L386.13 200.08L386.29 199.76L386.44 199.42L386.6 199.08L386.6 133.69L386.59 133.4L386.58 133.12L386.55 132.84L386.51 132.57L386.46 132.3L386.4 132.03L386.33 131.76L386.25 131.5L386.16 131.25L386.06 131L385.95 130.75L385.83 130.51L385.7 130.28L385.56 130.05L385.42 129.82L385.27 129.61L385.1 129.4L384.93 129.19L384.76 128.99L384.57 128.8L384.38 128.62L384.19 128.44L383.98 128.27L383.77 128.11L383.55 127.96L383.33 127.81L383.1 127.68L382.86 127.55L382.62 127.43L382.38 127.32L382.13 127.22L381.87 127.13L381.61 127.05L381.35 126.98L381.08 126.92L380.81 126.87L380.53 126.83L380.26 126.8L379.97 126.78L379.69 126.78L260.05 126.78L259.77 126.78Z" id="a1kADnYK7c"></path><path d="M276.93 92.02C280.27 92.02 282.98 89.31 282.98 85.97C282.98 82.43 282.98 54.11 282.98 50.57C282.98 47.22 280.27 44.51 276.93 44.51C276.93 44.51 276.93 44.51 276.93 44.51C275.82 44.51 267 44.51 265.9 44.51C262.56 44.51 259.85 47.22 259.85 50.57C259.85 54.11 259.85 82.43 259.85 85.97C259.85 89.31 262.56 92.02 265.9 92.02C265.9 92.02 265.9 92.02 265.9 92.02C268.11 92.02 275.82 92.02 276.93 92.02Z" id="b2PYBpxQr"></path><path d="M373.84 92.02C377.18 92.02 379.9 89.31 379.9 85.97C379.9 85.97 379.9 85.97 379.9 85.97C379.9 82.43 379.9 54.11 379.9 50.57C379.9 47.22 377.18 44.51 373.84 44.51C373.84 44.51 373.84 44.51 373.84 44.51C372.74 44.51 363.9 44.51 362.79 44.51C359.45 44.51 356.73 47.22 356.73 50.57C356.73 50.57 356.73 50.57 356.73 50.57C356.73 54.11 356.73 82.43 356.73 85.97C356.73 89.31 359.45 92.02 362.79 92.02C362.79 92.02 362.79 92.02 362.79 92.02C365 92.02 372.74 92.02 373.84 92.02Z" id="c2tmNvYHGc"></path><path d="M331.14 143C331.11 140.78 329.3 139 327.08 139.02C325.66 139.02 314.36 139.02 312.95 139.02C310.71 139.02 308.9 140.82 308.89 143.06C308.89 144.46 308.89 155.73 308.89 157.13C308.89 159.38 310.7 161.2 312.95 161.2C314.36 161.2 325.69 161.2 327.1 161.2C329.34 161.18 331.14 159.37 331.14 157.13C331.14 154.31 331.14 145.83 331.14 143Z" id="dIe2HvLji"></path><path d="M366.59 143C366.55 140.76 364.7 138.98 362.46 139.02C362.45 139.02 362.44 139.02 362.43 139.02C361.01 139.02 349.71 139.02 348.3 139.02C346.06 139.02 344.25 140.82 344.24 143.06C344.24 144.46 344.24 155.73 344.24 157.13C344.24 159.38 346.05 161.2 348.3 161.2C349.71 161.2 361.04 161.2 362.45 161.2C364.7 161.24 366.55 159.46 366.59 157.21C366.59 157.19 366.59 157.16 366.59 157.13C366.59 154.31 366.59 145.83 366.59 143Z" id="f2Qi8fcZ8"></path><path d="M196.77 268.25C196.77 268.25 196.77 268.25 196.77 268.25C196.77 108.08 196.77 19.09 196.77 1.29C196.77 1.29 196.77 1.29 196.77 1.29C345.1 1.29 427.51 1.29 443.99 1.29C443.99 1.29 443.99 1.29 443.99 1.29C443.99 161.47 443.99 250.45 443.99 268.25C443.99 268.25 443.99 268.25 443.99 268.25C295.66 268.25 213.25 268.25 196.77 268.25Z" id="aiCY6oUwA"></path></defs><g><g><use xlink:href="#c3gFn3zoKP" opacity="1" fill="#000000" fill-opacity="1"></use><g><use xlink:href="#c3gFn3zoKP" opacity="1" fill-opacity="0" stroke="#000000" stroke-width="1" stroke-opacity="0"></use></g></g><g><use xlink:href="#gwuJEkRfy" opacity="1" fill="#000000" fill-opacity="1"></use><g><use xlink:href="#gwuJEkRfy" opacity="1" fill-opacity="0" stroke="#000000" stroke-width="1" stroke-opacity="0"></use></g></g><g><use xlink:href="#b1eV9qGdK" opacity="1" fill="#000000" fill-opacity="1"></use><g><use xlink:href="#b1eV9qGdK" opacity="1" fill-opacity="0" stroke="#000000" stroke-width="1" stroke-opacity="0"></use></g></g><g><use xlink:href="#a3zbG5dqQS" opacity="1" fill="#000000" fill-opacity="1"></use><g><use xlink:href="#a3zbG5dqQS" opacity="1" fill-opacity="0" stroke="#000000" stroke-width="1" stroke-opacity="0"></use></g></g><g><use xlink:href="#a1kADnYK7c" opacity="1" fill="#000000" fill-opacity="1"></use><g><use xlink:href="#a1kADnYK7c" opacity="1" fill-opacity="0" stroke="#000000" stroke-width="1" stroke-opacity="0"></use></g></g><g><use xlink:href="#b2PYBpxQr" opacity="1" fill="#000000" fill-opacity="1"></use><g><use xlink:href="#b2PYBpxQr" opacity="1" fill-opacity="0" stroke="#000000" stroke-width="1" stroke-opacity="0"></use></g></g><g><use xlink:href="#c2tmNvYHGc" opacity="1" fill="#000000" fill-opacity="1"></use><g><use xlink:href="#c2tmNvYHGc" opacity="1" fill-opacity="0" stroke="#000000" stroke-width="1" stroke-opacity="0"></use></g></g><g><use xlink:href="#dIe2HvLji" opacity="1" fill="#000000" fill-opacity="1"></use><g><use xlink:href="#dIe2HvLji" opacity="1" fill-opacity="0" stroke="#000000" stroke-width="1" stroke-opacity="0"></use></g></g><g><use xlink:href="#f2Qi8fcZ8" opacity="1" fill="#000000" fill-opacity="1"></use><g><use xlink:href="#f2Qi8fcZ8" opacity="1" fill-opacity="0" stroke="#000000" stroke-width="1" stroke-opacity="0"></use></g></g><g><use xlink:href="#aiCY6oUwA" opacity="1" fill="#000000" fill-opacity="0"></use><g><use xlink:href="#aiCY6oUwA" opacity="1" fill-opacity="0" stroke="#000000" stroke-width="1" stroke-opacity="1"></use></g></g></g></svg>