<?xml version="1.0" encoding="UTF-8" standalone="no"?>
<!DOCTYPE svg PUBLIC "-//W3C//DTD SVG 1.1//EN" "http://www.w3.org/Graphics/SVG/1.1/DTD/svg11.dtd">
<svg version="1.1" xmlns="http://www.w3.org/2000/svg" xmlns:xlink="http://www.w3.org/1999/xlink" preserveAspectRatio="xMidYMid meet" viewBox="196.38928507100036 0 247.22142985799923 266.95760933094647" width="247.22" height="266.96"><defs><path d="M288.26 152.69C287.16 152.69 286.28 152.69 286.06 152.69C284.08 152.67 282.1 152.42 280.18 151.95C275.74 156.48 240.21 192.74 235.77 197.28C233.59 199.51 233.59 203.07 235.77 205.31C236.92 206.47 246.1 215.82 247.25 216.99C249.37 219.16 252.85 219.21 255.02 217.09C255.06 217.06 255.09 217.02 255.12 216.99C258.68 213.37 276.48 195.29 308.51 162.74L298.61 151.87C293.09 152.31 289.64 152.58 288.26 152.69Z" id="b3br5Hos1k"></path><path d="M397.65 80.31C397.62 80.35 397.59 80.38 397.56 80.41C394.68 83.34 371.67 106.76 368.8 109.68C366.14 112.4 361.79 112.45 359.07 109.8C359.03 109.76 358.99 109.72 358.95 109.68C356.24 106.89 356.24 102.45 358.95 99.66C361.82 96.75 384.72 73.45 387.59 70.54C389.74 68.32 389.74 64.78 387.59 62.56C385.46 60.4 381.98 60.36 379.81 62.49C379.79 62.51 379.76 62.54 379.74 62.56C376.87 65.48 353.97 88.77 351.1 91.68C348.45 94.4 344.1 94.46 341.38 91.8C341.34 91.76 341.3 91.72 341.26 91.68C338.53 88.9 338.53 84.45 341.26 81.66C344.14 78.74 367.15 55.34 370.02 52.41C372.1 50.28 372.1 46.88 370.02 44.74C368.03 42.62 364.7 42.52 362.58 44.52C362.5 44.59 362.42 44.67 362.35 44.74C359.13 48.03 333.34 74.36 330.11 77.65C322.63 85.35 319.72 96.41 322.44 106.79C324.61 109 341.98 126.65 344.15 128.86C354.42 131.57 365.36 128.57 372.81 120.98C376.04 117.7 401.87 91.39 405.1 88.1C407.2 85.97 407.2 82.55 405.1 80.41C403.07 78.33 399.74 78.28 397.65 80.31Z" id="h350VlHvns"></path><path d="M247.89 47.71C246.56 46.35 244.65 45.73 242.77 46.05C240.89 46.38 239.29 47.61 238.48 49.34C229.03 69.28 233 92.99 248.42 108.76C251.18 111.58 273.21 134.07 275.96 136.89C278.65 139.64 282.34 141.19 286.19 141.18C286.27 141.18 286.68 141.18 287.41 141.18L303.39 139.8C345.14 185.59 368.32 211.03 372.96 216.12C374.04 217.31 375.55 218 377.16 218.04C377.16 218.04 377.16 218.04 377.16 218.04C378.74 218.05 380.26 217.43 381.37 216.3C382.57 215.08 392.12 205.37 393.31 204.15C395.59 201.8 395.59 198.07 393.31 195.72C364.23 166.12 276.97 77.31 247.89 47.71Z" id="ayQnAQTEO"></path><path d="M196.39 266.96C196.39 266.96 196.39 266.96 196.39 266.96C196.39 106.78 196.39 17.8 196.39 0C196.39 0 196.39 0 196.39 0C344.72 0 427.13 0 443.61 0C443.61 0 443.61 0 443.61 0C443.61 160.17 443.61 249.16 443.61 266.96C443.61 266.96 443.61 266.96 443.61 266.96C295.28 266.96 212.87 266.96 196.39 266.96Z" id="d6IKWPjazH"></path></defs><g><g><use xlink:href="#b3br5Hos1k" opacity="1" fill="#000000" fill-opacity="1"></use><g><use xlink:href="#b3br5Hos1k" opacity="1" fill-opacity="0" stroke="#000000" stroke-width="1" stroke-opacity="0"></use></g></g><g><use xlink:href="#h350VlHvns" opacity="1" fill="#000000" fill-opacity="1"></use><g><use xlink:href="#h350VlHvns" opacity="1" fill-opacity="0" stroke="#000000" stroke-width="1" stroke-opacity="0"></use></g></g><g><use xlink:href="#ayQnAQTEO" opacity="1" fill="#000000" fill-opacity="1"></use><g><use xlink:href="#ayQnAQTEO" opacity="1" fill-opacity="0" stroke="#000000" stroke-width="1" stroke-opacity="0"></use></g></g><g><use xlink:href="#d6IKWPjazH" opacity="1" fill="#000000" fill-opacity="0"></use><g><use xlink:href="#d6IKWPjazH" opacity="1" fill-opacity="0" stroke="#000000" stroke-width="1" stroke-opacity="1"></use></g></g></g></svg>