<?xml version="1.0" encoding="UTF-8" standalone="no"?>
<!DOCTYPE svg PUBLIC "-//W3C//DTD SVG 1.1//EN" "http://www.w3.org/Graphics/SVG/1.1/DTD/svg11.dtd">
<svg version="1.1" xmlns="http://www.w3.org/2000/svg" xmlns:xlink="http://www.w3.org/1999/xlink" preserveAspectRatio="xMidYMid meet" viewBox="196.38928507100036 0 247.22142985799923 266.95760933094647" width="247.22" height="266.96"><defs><path d="M314.6 137.39C315.88 136.68 326.11 131.01 327.39 130.3C326.16 129.69 324.8 129.39 323.43 129.42C318.88 129.43 315.08 132.87 314.6 137.39Z" id="a17DD17gUw"></path><path d="M347.44 137.18C348.71 136.5 358.86 131.01 360.12 130.32C358.92 129.72 357.59 129.41 356.24 129.42C351.78 129.43 348.02 132.75 347.44 137.18Z" id="k1qGz8syxE"></path><path d="M321.46 48.96L321.93 49.01L322.4 49.09L322.85 49.19L323.3 49.3L323.74 49.44L324.16 49.59L324.58 49.77L325 49.96L325.4 50.16L325.8 50.39L326.19 50.63L326.57 50.88L326.94 51.15L327.31 51.43L327.67 51.72L328.03 52.02L328.38 52.34L328.72 52.67L329.05 53.01L329.38 53.35L329.71 53.71L330.03 54.08L330.34 54.45L330.65 54.83L330.96 55.21L331.26 55.6L331.56 56L331.85 56.4L332.14 56.8L332.43 57.21L332.71 57.62L332.99 58.03L333.26 58.45L333.54 58.86L333.81 59.27L334.08 59.68L334.34 60.09L334.61 60.5L334.7 60.67L334.8 60.83L334.9 60.99L335 61.16L335.1 61.32L335.2 61.48L335.3 61.64L335.4 61.8L335.5 61.96L335.61 62.12L335.71 62.28L335.82 62.43L335.93 62.59L336.04 62.75L336.15 62.9L336.26 63.06L336.37 63.21L336.48 63.36L336.59 63.52L336.7 63.67L336.82 63.82L336.93 63.97L337.05 64.12L337.17 64.27L337.29 64.42L337.4 64.57L337.52 64.71L337.65 64.86L337.77 65L337.89 65.15L338.01 65.29L338.14 65.44L338.26 65.58L338.39 65.72L338.52 65.86L338.64 66L338.77 66.14L338.9 66.28L339.03 66.42L339.16 66.56L339.36 66.51L339.55 66.45L339.74 66.4L339.93 66.34L340.13 66.28L340.32 66.22L340.51 66.16L340.7 66.1L340.89 66.04L341.08 65.98L341.27 65.91L341.46 65.84L341.64 65.77L341.83 65.71L342.02 65.63L342.2 65.56L342.39 65.49L342.58 65.41L342.76 65.34L342.95 65.26L343.13 65.18L343.31 65.1L343.5 65.02L343.68 64.94L343.86 64.86L344.04 64.77L344.22 64.69L344.4 64.6L344.58 64.51L344.76 64.42L344.94 64.33L345.11 64.24L345.29 64.14L345.47 64.05L345.64 63.95L345.82 63.86L345.99 63.76L346.17 63.66L346.34 63.56L346.51 63.45L346.8 63.28L347.08 63.11L347.37 62.94L347.66 62.78L347.95 62.62L348.25 62.46L348.54 62.31L348.84 62.16L349.14 62.01L349.43 61.87L349.74 61.73L350.04 61.59L350.34 61.46L350.65 61.33L350.95 61.2L351.26 61.08L351.57 60.96L351.88 60.84L352.19 60.73L352.51 60.62L352.82 60.52L353.14 60.42L353.45 60.32L353.77 60.22L354.09 60.13L354.41 60.05L354.73 59.96L355.05 59.88L355.38 59.81L355.7 59.73L356.03 59.66L356.35 59.6L356.68 59.54L357.01 59.48L357.33 59.43L357.66 59.38L357.99 59.33L358.32 59.29L358.65 59.25L358.99 59.21L359.12 59.21L359.26 59.21L359.39 59.21L359.53 59.22L359.66 59.23L359.8 59.23L359.93 59.24L360.07 59.26L360.2 59.27L360.34 59.29L360.47 59.3L360.61 59.32L360.74 59.34L360.87 59.36L361.01 59.39L361.14 59.42L361.27 59.44L361.4 59.47L361.53 59.5L361.66 59.54L361.79 59.57L361.92 59.61L362.05 59.65L362.18 59.69L362.31 59.73L362.44 59.77L362.57 59.82L362.69 59.86L362.82 59.91L362.94 59.96L363.07 60.01L363.19 60.07L363.32 60.12L363.44 60.18L363.56 60.24L363.68 60.3L363.8 60.36L363.92 60.42L364.04 60.49L364.16 60.56L364.58 60.81L364.97 61.07L365.35 61.35L365.71 61.65L366.05 61.96L366.37 62.28L366.68 62.61L366.97 62.95L367.24 63.31L367.5 63.67L367.74 64.05L367.97 64.44L368.19 64.83L368.39 65.24L368.58 65.65L368.75 66.07L368.92 66.5L369.07 66.94L369.21 67.38L369.34 67.83L369.46 68.29L369.57 68.75L369.67 69.21L369.77 69.68L369.85 70.16L369.93 70.64L370 71.12L370.07 71.6L370.12 72.09L370.18 72.58L370.22 73.07L370.27 73.56L370.31 74.05L370.34 74.54L370.37 75.03L370.4 75.52L370.43 76L370.45 76.49L370.48 76.97L370.5 77.45L370.5 77.65L370.5 77.85L370.5 78.04L370.51 78.24L370.51 78.44L370.52 78.63L370.53 78.83L370.53 79.02L370.54 79.22L370.56 79.41L370.57 79.61L370.58 79.81L370.6 80L370.61 80.2L370.63 80.39L370.65 80.59L370.67 80.78L370.69 80.98L370.71 81.17L370.73 81.37L370.76 81.56L370.78 81.76L370.81 81.95L370.84 82.14L370.87 82.34L370.9 82.53L370.93 82.72L370.96 82.92L371 83.11L371.04 83.3L371.07 83.5L371.11 83.69L371.15 83.88L371.19 84.07L371.23 84.26L371.27 84.45L371.32 84.65L371.36 84.84L371.41 85.03L371.46 85.22L371.65 85.27L371.84 85.31L372.03 85.36L372.22 85.4L372.41 85.45L372.61 85.49L372.8 85.53L372.99 85.57L373.18 85.61L373.37 85.64L373.57 85.68L373.76 85.71L373.95 85.75L374.15 85.78L374.34 85.81L374.53 85.84L374.73 85.87L374.92 85.89L375.12 85.92L375.31 85.94L375.51 85.97L375.7 85.99L375.89 86.01L376.09 86.03L376.28 86.05L376.48 86.07L376.68 86.08L376.87 86.1L377.07 86.11L377.26 86.12L377.46 86.13L377.65 86.14L377.85 86.15L378.05 86.16L378.24 86.16L378.44 86.17L378.63 86.17L378.83 86.17L379.03 86.18L379.22 86.18L379.7 86.2L380.18 86.22L380.67 86.25L381.16 86.28L381.64 86.31L382.13 86.34L382.62 86.38L383.11 86.42L383.6 86.46L384.09 86.51L384.58 86.57L385.07 86.63L385.55 86.69L386.04 86.76L386.51 86.84L386.99 86.93L387.46 87.03L387.93 87.13L388.39 87.24L388.85 87.37L389.3 87.5L389.74 87.64L390.18 87.79L390.61 87.96L391.03 88.13L391.45 88.32L391.85 88.52L392.25 88.74L392.63 88.97L393.01 89.21L393.38 89.47L393.73 89.74L394.08 90.03L394.41 90.33L394.73 90.65L395.03 90.99L395.33 91.34L395.61 91.72L395.87 92.11L396.12 92.52L396.35 92.94L396.56 93.36L396.74 93.79L396.9 94.22L397.04 94.65L397.16 95.08L397.26 95.52L397.34 95.96L397.4 96.4L397.44 96.84L397.46 97.28L397.46 97.73L397.45 98.17L397.42 98.62L397.38 99.07L397.32 99.52L397.25 99.97L397.17 100.42L397.07 100.87L396.96 101.32L396.84 101.77L396.71 102.22L396.56 102.67L396.41 103.12L396.25 103.57L396.08 104.02L395.9 104.47L395.72 104.92L395.53 105.37L395.33 105.81L395.13 106.26L394.92 106.7L394.72 107.14L394.5 107.58L394.29 108.02L394.07 108.45L393.85 108.88L393.63 109.31L393.42 109.74L393.2 110.16L393.1 110.34L393 110.51L392.9 110.68L392.81 110.86L392.71 111.03L392.62 111.21L392.53 111.39L392.44 111.56L392.35 111.74L392.26 111.92L392.17 112.1L392.08 112.28L392 112.46L391.92 112.64L391.83 112.82L391.75 113L391.67 113.18L391.59 113.36L391.51 113.55L391.44 113.73L391.36 113.91L391.28 114.1L391.21 114.28L391.14 114.47L391.07 114.65L391 114.84L390.93 115.02L390.86 115.21L390.79 115.4L390.73 115.59L390.67 115.77L390.6 115.96L390.54 116.15L390.48 116.34L390.42 116.53L390.36 116.72L390.31 116.91L390.25 117.1L390.2 117.3L390.14 117.49L390.28 117.62L390.42 117.75L390.56 117.88L390.7 118.01L390.84 118.14L390.98 118.26L391.12 118.39L391.26 118.51L391.41 118.64L391.55 118.76L391.7 118.89L391.84 119.01L391.99 119.13L392.14 119.25L392.28 119.37L392.43 119.48L392.58 119.6L392.73 119.72L392.88 119.83L393.03 119.95L393.19 120.06L393.34 120.17L393.49 120.29L393.65 120.4L393.8 120.51L393.96 120.62L394.11 120.72L394.27 120.83L394.43 120.94L394.58 121.04L394.74 121.15L394.9 121.25L395.06 121.35L395.22 121.45L395.38 121.55L395.55 121.65L395.71 121.75L395.87 121.85L396.03 121.95L396.2 122.04L396.61 122.31L397.02 122.57L397.43 122.84L397.84 123.11L398.26 123.38L398.67 123.66L399.08 123.93L399.49 124.22L399.9 124.5L400.3 124.79L400.7 125.08L401.1 125.38L401.49 125.68L401.88 125.98L402.26 126.3L402.63 126.61L402.99 126.93L403.35 127.26L403.7 127.59L404.03 127.92L404.36 128.27L404.68 128.62L404.98 128.97L405.28 129.33L405.56 129.7L405.82 130.08L406.08 130.46L406.32 130.85L406.54 131.25L406.75 131.65L406.94 132.06L407.11 132.48L407.26 132.91L407.4 133.35L407.52 133.8L407.61 134.25L407.69 134.72L407.75 135.19L407.78 135.68L407.79 136.17L407.78 136.67L407.75 137.15L407.69 137.62L407.61 138.09L407.52 138.54L407.4 138.99L407.26 139.43L407.11 139.86L406.94 140.28L406.75 140.69L406.54 141.1L406.32 141.49L406.08 141.88L405.82 142.26L405.56 142.64L405.28 143.01L404.98 143.37L404.68 143.72L404.36 144.07L404.03 144.41L403.7 144.75L403.35 145.08L402.99 145.4L402.63 145.72L402.26 146.04L401.88 146.35L401.49 146.65L401.1 146.95L400.7 147.25L400.3 147.54L399.9 147.83L399.49 148.12L399.08 148.4L398.67 148.68L398.26 148.96L397.84 149.23L397.43 149.5L397.02 149.77L396.61 150.04L396.2 150.3L396.03 150.4L395.87 150.49L395.71 150.59L395.55 150.69L395.38 150.79L395.22 150.89L395.06 150.99L394.9 151.09L394.74 151.2L394.58 151.3L394.43 151.41L394.27 151.51L394.11 151.62L393.96 151.73L393.8 151.84L393.65 151.95L393.49 152.06L393.34 152.17L393.19 152.28L393.03 152.4L392.88 152.51L392.73 152.63L392.58 152.74L392.43 152.86L392.28 152.98L392.14 153.1L391.99 153.22L391.84 153.34L391.7 153.46L391.55 153.58L391.41 153.71L391.26 153.83L391.12 153.96L390.98 154.08L390.84 154.21L390.7 154.34L390.56 154.47L390.42 154.59L390.28 154.73L390.14 154.86L390.2 155.05L390.25 155.24L390.31 155.43L390.36 155.62L390.42 155.81L390.48 156L390.54 156.19L390.6 156.38L390.67 156.57L390.73 156.76L390.79 156.95L390.86 157.13L390.93 157.32L391 157.51L391.07 157.69L391.14 157.88L391.21 158.06L391.28 158.25L391.36 158.43L391.44 158.62L391.51 158.8L391.59 158.98L391.67 159.16L391.75 159.35L391.83 159.53L391.92 159.71L392 159.89L392.08 160.07L392.17 160.25L392.26 160.43L392.35 160.6L392.44 160.78L392.53 160.96L392.62 161.13L392.71 161.31L392.81 161.49L392.9 161.66L393 161.83L393.1 162.01L393.2 162.18L393.42 162.6L393.64 163.03L393.86 163.46L394.08 163.89L394.3 164.33L394.51 164.76L394.73 165.2L394.94 165.64L395.14 166.08L395.35 166.52L395.54 166.96L395.73 167.41L395.92 167.86L396.1 168.3L396.27 168.75L396.43 169.2L396.58 169.65L396.72 170.1L396.86 170.55L396.98 171L397.09 171.44L397.19 171.89L397.27 172.34L397.34 172.79L397.4 173.24L397.44 173.69L397.47 174.14L397.48 174.58L397.47 175.03L397.45 175.47L397.41 175.92L397.35 176.36L397.27 176.8L397.17 177.24L397.05 177.68L396.91 178.11L396.75 178.54L396.56 178.97L396.35 179.4L396.12 179.83L395.87 180.24L395.6 180.64L395.32 181.02L395.03 181.38L394.72 181.72L394.4 182.04L394.07 182.35L393.73 182.64L393.37 182.91L393 183.17L392.63 183.41L392.24 183.64L391.85 183.85L391.44 184.06L391.03 184.24L390.61 184.42L390.18 184.58L389.74 184.74L389.3 184.88L388.85 185.01L388.39 185.13L387.93 185.24L387.46 185.34L386.99 185.44L386.52 185.52L386.04 185.6L385.56 185.67L385.08 185.73L384.59 185.79L384.1 185.84L383.61 185.89L383.12 185.94L382.63 185.97L382.14 186.01L381.65 186.04L381.16 186.07L380.67 186.1L380.19 186.12L379.7 186.15L379.22 186.17L379.03 186.17L378.83 186.17L378.63 186.17L378.44 186.18L378.24 186.18L378.05 186.19L377.85 186.19L377.65 186.2L377.46 186.21L377.26 186.22L377.07 186.24L376.87 186.25L376.68 186.26L376.48 186.28L376.28 186.3L376.09 186.32L375.89 186.34L375.7 186.36L375.51 186.38L375.31 186.4L375.12 186.43L374.92 186.45L374.73 186.48L374.53 186.51L374.34 186.54L374.15 186.57L373.95 186.6L373.76 186.63L373.57 186.67L373.37 186.7L373.18 186.74L372.99 186.78L372.8 186.82L372.61 186.86L372.41 186.9L372.22 186.94L372.03 186.99L371.84 187.03L371.65 187.08L371.46 187.13L371.41 187.32L371.36 187.51L371.32 187.7L371.27 187.89L371.23 188.08L371.19 188.27L371.15 188.47L371.11 188.66L371.07 188.85L371.04 189.04L371 189.23L370.96 189.43L370.93 189.62L370.9 189.81L370.87 190.01L370.84 190.2L370.81 190.4L370.78 190.59L370.76 190.78L370.73 190.98L370.71 191.17L370.69 191.37L370.67 191.56L370.65 191.76L370.63 191.95L370.61 192.15L370.6 192.34L370.58 192.54L370.57 192.73L370.56 192.93L370.54 193.13L370.53 193.32L370.53 193.52L370.52 193.71L370.51 193.91L370.51 194.11L370.5 194.3L370.5 194.5L370.5 194.69L370.5 194.89L370.48 195.37L370.45 195.86L370.43 196.34L370.4 196.83L370.37 197.32L370.34 197.81L370.31 198.3L370.27 198.79L370.22 199.28L370.18 199.77L370.12 200.25L370.07 200.74L370 201.22L369.93 201.7L369.85 202.18L369.77 202.65L369.67 203.12L369.57 203.59L369.46 204.05L369.34 204.5L369.21 204.95L369.07 205.4L368.92 205.83L368.75 206.26L368.58 206.68L368.39 207.1L368.19 207.5L367.97 207.9L367.74 208.28L367.5 208.66L367.24 209.03L366.97 209.38L366.68 209.73L366.37 210.06L366.05 210.38L365.71 210.69L365.35 210.99L364.97 211.27L364.58 211.54L364.16 211.79L364.04 211.86L363.92 211.92L363.8 211.98L363.68 212.05L363.56 212.11L363.44 212.17L363.32 212.22L363.19 212.28L363.07 212.33L362.94 212.38L362.82 212.43L362.69 212.48L362.57 212.53L362.44 212.57L362.31 212.62L362.18 212.66L362.05 212.7L361.92 212.74L361.79 212.77L361.66 212.81L361.53 212.84L361.4 212.87L361.27 212.9L361.14 212.93L361.01 212.96L360.87 212.98L360.74 213L360.61 213.02L360.47 213.04L360.34 213.06L360.2 213.08L360.07 213.09L359.93 213.1L359.8 213.11L359.66 213.12L359.53 213.13L359.39 213.13L359.26 213.13L359.12 213.14L358.99 213.13L358.65 213.1L358.32 213.06L357.99 213.02L357.66 212.97L357.33 212.92L357.01 212.86L356.68 212.81L356.35 212.75L356.03 212.68L355.7 212.61L355.38 212.54L355.05 212.46L354.73 212.38L354.41 212.3L354.09 212.21L353.77 212.12L353.45 212.03L353.14 211.93L352.82 211.83L352.51 211.72L352.19 211.61L351.88 211.5L351.57 211.39L351.26 211.27L350.95 211.14L350.65 211.02L350.34 210.89L350.04 210.76L349.74 210.62L349.43 210.48L349.14 210.34L348.84 210.19L348.54 210.04L348.25 209.88L347.95 209.73L347.66 209.57L347.37 209.4L347.08 209.24L346.8 209.06L346.51 208.89L346.34 208.79L346.17 208.69L346 208.59L345.83 208.49L345.66 208.4L345.48 208.3L345.31 208.21L345.13 208.12L344.96 208.03L344.78 207.94L344.61 207.85L344.43 207.76L344.25 207.67L344.07 207.59L343.9 207.5L343.72 207.42L343.54 207.34L343.36 207.26L343.18 207.18L343 207.1L342.81 207.03L342.63 206.95L342.45 206.88L342.26 206.8L342.08 206.73L341.9 206.66L341.71 206.59L341.53 206.53L341.34 206.46L341.15 206.39L340.97 206.33L340.78 206.27L340.59 206.21L340.4 206.15L340.22 206.09L340.03 206.03L339.84 205.97L339.65 205.92L339.46 205.86L339.27 205.81L339.14 205.95L339 206.09L338.88 206.23L338.75 206.37L338.62 206.51L338.49 206.65L338.37 206.79L338.24 206.93L338.12 207.08L337.99 207.22L337.87 207.37L337.75 207.51L337.63 207.66L337.51 207.8L337.39 207.95L337.27 208.1L337.15 208.25L337.04 208.4L336.92 208.55L336.81 208.7L336.69 208.85L336.58 209.01L336.47 209.16L336.36 209.31L336.25 209.47L336.14 209.62L336.03 209.78L335.92 209.94L335.82 210.09L335.71 210.25L335.61 210.41L335.5 210.57L335.4 210.73L335.3 210.89L335.2 211.05L335.1 211.21L335 211.38L334.9 211.54L334.81 211.7L334.71 211.87L334.45 212.28L334.18 212.69L333.92 213.1L333.65 213.51L333.37 213.93L333.1 214.34L332.82 214.75L332.54 215.16L332.25 215.57L331.97 215.97L331.67 216.37L331.38 216.77L331.08 217.16L330.77 217.54L330.46 217.92L330.14 218.3L329.82 218.66L329.5 219.02L329.17 219.36L328.83 219.7L328.49 220.03L328.14 220.35L327.78 220.65L327.42 220.94L327.05 221.23L326.68 221.49L326.3 221.75L325.91 221.98L325.51 222.21L325.1 222.41L324.69 222.6L324.27 222.78L323.84 222.93L323.4 223.07L322.96 223.19L322.5 223.28L322.03 223.36L321.56 223.42L321.08 223.45L320.58 223.46L320.09 223.45L319.6 223.42L319.13 223.36L318.67 223.28L318.21 223.19L317.76 223.07L317.33 222.93L316.9 222.78L316.48 222.6L316.06 222.41L315.66 222.21L315.26 221.98L314.87 221.75L314.49 221.49L314.12 221.23L313.75 220.94L313.39 220.65L313.03 220.35L312.69 220.03L312.34 219.7L312.01 219.36L311.68 219.02L311.35 218.66L311.03 218.3L310.72 217.92L310.41 217.54L310.1 217.16L309.8 216.77L309.5 216.37L309.21 215.97L308.92 215.57L308.64 215.16L308.35 214.75L308.07 214.34L307.8 213.93L307.52 213.51L307.25 213.1L306.98 212.69L306.72 212.28L306.45 211.87L306.36 211.7L306.26 211.54L306.16 211.38L306.06 211.21L305.96 211.05L305.86 210.89L305.76 210.73L305.66 210.57L305.56 210.41L305.45 210.25L305.35 210.09L305.24 209.94L305.13 209.78L305.03 209.62L304.92 209.47L304.81 209.31L304.7 209.16L304.58 209.01L304.47 208.85L304.36 208.7L304.24 208.55L304.13 208.4L304.01 208.25L303.89 208.1L303.78 207.95L303.66 207.8L303.54 207.66L303.42 207.51L303.29 207.37L303.17 207.22L303.05 207.08L302.92 206.93L302.8 206.79L302.67 206.65L302.55 206.51L302.42 206.37L302.29 206.23L302.16 206.09L302.03 205.95L301.9 205.81L301.7 205.86L301.51 205.92L301.31 205.97L301.12 206.02L300.93 206.08L300.73 206.14L300.54 206.2L300.35 206.26L300.16 206.32L299.96 206.39L299.77 206.45L299.58 206.52L299.39 206.58L299.2 206.65L299.01 206.72L298.83 206.79L298.64 206.87L298.45 206.94L298.26 207.01L298.08 207.09L297.89 207.17L297.71 207.25L297.52 207.33L297.34 207.41L297.15 207.49L296.97 207.58L296.79 207.66L296.61 207.75L296.42 207.84L296.24 207.93L296.06 208.02L295.88 208.11L295.71 208.2L295.53 208.3L295.35 208.39L295.17 208.49L295 208.59L294.82 208.69L294.65 208.79L294.47 208.89L294.19 209.06L293.9 209.23L293.61 209.4L293.32 209.57L293.03 209.73L292.74 209.88L292.45 210.04L292.15 210.19L291.85 210.33L291.55 210.48L291.25 210.62L290.95 210.75L290.65 210.89L290.34 211.02L290.04 211.14L289.73 211.26L289.42 211.38L289.11 211.5L288.8 211.61L288.49 211.72L288.17 211.82L287.86 211.93L287.54 212.02L287.23 212.12L286.91 212.21L286.59 212.3L286.27 212.38L285.95 212.46L285.62 212.54L285.3 212.61L284.98 212.68L284.65 212.74L284.33 212.81L284 212.86L283.67 212.92L283.34 212.97L283.01 213.02L282.68 213.06L282.35 213.1L282.02 213.13L281.89 213.14L281.75 213.13L281.62 213.13L281.48 213.13L281.34 213.12L281.21 213.11L281.07 213.1L280.94 213.09L280.81 213.08L280.67 213.06L280.54 213.04L280.4 213.02L280.27 213L280.14 212.98L280 212.96L279.87 212.93L279.74 212.9L279.61 212.87L279.48 212.84L279.35 212.81L279.22 212.77L279.09 212.74L278.96 212.7L278.83 212.66L278.7 212.62L278.57 212.57L278.44 212.53L278.32 212.48L278.19 212.43L278.07 212.38L277.94 212.33L277.82 212.28L277.69 212.22L277.57 212.17L277.45 212.11L277.33 212.05L277.21 211.98L277.09 211.92L276.97 211.86L276.85 211.79L276.43 211.54L276.04 211.27L275.66 210.99L275.3 210.7L274.96 210.39L274.64 210.07L274.33 209.74L274.04 209.39L273.77 209.04L273.51 208.67L273.27 208.3L273.04 207.91L272.82 207.51L272.62 207.11L272.43 206.69L272.26 206.27L272.09 205.84L271.94 205.41L271.8 204.96L271.67 204.51L271.55 204.06L271.44 203.6L271.33 203.13L271.24 202.66L271.16 202.19L271.08 201.71L271.01 201.23L270.94 200.74L270.88 200.26L270.83 199.77L270.78 199.28L270.74 198.79L270.7 198.3L270.67 197.81L270.64 197.32L270.61 196.83L270.58 196.34L270.56 195.86L270.53 195.37L270.51 194.89L270.51 194.69L270.51 194.5L270.5 194.3L270.5 194.11L270.5 193.91L270.49 193.71L270.48 193.52L270.47 193.32L270.46 193.13L270.45 192.93L270.44 192.73L270.43 192.54L270.41 192.34L270.4 192.15L270.38 191.95L270.36 191.76L270.34 191.56L270.32 191.37L270.3 191.17L270.28 190.98L270.25 190.78L270.23 190.59L270.2 190.4L270.17 190.2L270.14 190.01L270.11 189.81L270.08 189.62L270.04 189.43L270.01 189.23L269.97 189.04L269.94 188.85L269.9 188.66L269.86 188.47L269.82 188.27L269.78 188.08L269.73 187.89L269.69 187.7L269.64 187.51L269.6 187.32L269.55 187.13L269.36 187.08L269.17 187.03L268.98 186.99L268.79 186.94L268.6 186.9L268.4 186.86L268.21 186.82L268.02 186.78L267.83 186.74L267.63 186.7L267.44 186.67L267.25 186.63L267.06 186.6L266.86 186.57L266.67 186.54L266.48 186.51L266.28 186.48L266.09 186.45L265.89 186.43L265.7 186.4L265.5 186.38L265.31 186.36L265.11 186.33L264.92 186.32L264.72 186.3L264.53 186.28L264.33 186.26L264.14 186.25L263.94 186.24L263.75 186.22L263.55 186.21L263.36 186.2L263.16 186.19L262.96 186.19L262.77 186.18L262.57 186.18L262.38 186.17L262.18 186.17L261.98 186.17L261.79 186.17L261.3 186.15L260.81 186.12L260.32 186.1L259.83 186.07L259.34 186.04L258.85 186L258.36 185.97L257.87 185.93L257.38 185.88L256.9 185.83L256.41 185.78L255.93 185.72L255.45 185.65L254.97 185.58L254.5 185.5L254.03 185.41L253.57 185.32L253.11 185.21L252.65 185.1L252.2 184.98L251.76 184.85L251.32 184.7L250.89 184.55L250.47 184.39L250.05 184.21L249.64 184.02L249.24 183.82L248.85 183.61L248.47 183.38L248.09 183.13L247.73 182.88L247.38 182.61L247.03 182.32L246.7 182.01L246.38 181.69L246.07 181.36L245.78 181L245.49 180.63L245.22 180.24L244.97 179.83L244.73 179.41L244.51 178.98L244.32 178.56L244.16 178.13L244.01 177.7L243.89 177.26L243.79 176.83L243.71 176.39L243.65 175.95L243.6 175.51L243.58 175.06L243.57 174.62L243.58 174.17L243.61 173.72L243.65 173.27L243.71 172.82L243.78 172.37L243.87 171.92L243.97 171.47L244.08 171.01L244.2 170.56L244.34 170.11L244.48 169.66L244.64 169.2L244.8 168.75L244.97 168.3L245.15 167.85L245.34 167.4L245.53 166.95L245.73 166.5L245.93 166.05L246.14 165.61L246.35 165.16L246.57 164.72L246.79 164.28L247.01 163.84L247.23 163.4L247.45 162.97L247.67 162.53L247.89 162.1L247.99 161.93L248.09 161.76L248.18 161.58L248.28 161.41L248.37 161.23L248.47 161.06L248.56 160.88L248.65 160.7L248.74 160.53L248.83 160.35L248.92 160.17L249 159.99L249.09 159.81L249.17 159.63L249.25 159.45L249.34 159.27L249.42 159.09L249.5 158.9L249.57 158.72L249.65 158.54L249.73 158.36L249.8 158.17L249.88 157.99L249.95 157.8L250.02 157.62L250.09 157.43L250.16 157.24L250.23 157.06L250.29 156.87L250.36 156.68L250.42 156.49L250.48 156.3L250.55 156.11L250.61 155.92L250.67 155.73L250.72 155.54L250.78 155.35L250.84 155.16L250.89 154.97L250.94 154.78L250.81 154.65L250.67 154.52L250.53 154.39L250.39 154.26L250.25 154.13L250.11 154L249.97 153.88L249.82 153.75L249.68 153.63L249.53 153.5L249.39 153.38L249.24 153.26L249.1 153.14L248.95 153.02L248.8 152.9L248.65 152.78L248.51 152.66L248.36 152.55L248.2 152.43L248.05 152.32L247.9 152.2L247.75 152.09L247.6 151.98L247.44 151.87L247.29 151.76L247.13 151.65L246.98 151.54L246.82 151.44L246.66 151.33L246.5 151.22L246.34 151.12L246.18 151.02L246.03 150.91L245.86 150.81L245.7 150.71L245.54 150.61L245.38 150.51L245.22 150.42L245.05 150.32L244.89 150.22L244.48 149.96L244.07 149.7L243.66 149.43L243.24 149.16L242.83 148.89L242.42 148.61L242.01 148.33L241.6 148.05L241.19 147.77L240.78 147.48L240.38 147.19L239.99 146.89L239.6 146.59L239.21 146.28L238.83 145.97L238.46 145.66L238.09 145.34L237.74 145.01L237.39 144.68L237.05 144.34L236.73 144L236.41 143.65L236.1 143.3L235.81 142.94L235.53 142.57L235.26 142.19L235.01 141.81L234.77 141.42L234.55 141.02L234.34 140.62L234.15 140.2L233.98 139.78L233.82 139.35L233.69 138.92L233.57 138.47L233.47 138.01L233.4 137.55L233.34 137.07L233.31 136.59L233.29 136.09L233.31 135.6L233.34 135.12L233.4 134.64L233.47 134.18L233.57 133.72L233.69 133.28L233.82 132.84L233.98 132.41L234.15 131.99L234.34 131.58L234.55 131.17L234.77 130.77L235.01 130.39L235.26 130L235.53 129.63L235.81 129.26L236.1 128.9L236.41 128.55L236.73 128.2L237.05 127.86L237.39 127.52L237.74 127.19L238.09 126.86L238.46 126.54L238.83 126.23L239.21 125.92L239.6 125.61L239.99 125.31L240.38 125.02L240.78 124.72L241.19 124.43L241.6 124.15L242.01 123.87L242.42 123.59L242.83 123.31L243.24 123.04L243.66 122.77L244.07 122.5L244.48 122.23L244.89 121.97L245.05 121.87L245.22 121.77L245.38 121.68L245.54 121.58L245.7 121.48L245.86 121.38L246.03 121.28L246.18 121.17L246.34 121.07L246.5 120.97L246.66 120.86L246.82 120.75L246.98 120.65L247.13 120.54L247.29 120.43L247.44 120.32L247.6 120.21L247.75 120.1L247.9 119.98L248.05 119.87L248.2 119.76L248.36 119.64L248.51 119.52L248.65 119.41L248.8 119.29L248.95 119.17L249.1 119.05L249.24 118.93L249.39 118.81L249.53 118.69L249.68 118.56L249.82 118.44L249.97 118.31L250.11 118.19L250.25 118.06L250.39 117.93L250.53 117.8L250.67 117.67L250.81 117.54L250.94 117.41L250.89 117.22L250.84 117.03L250.78 116.84L250.72 116.65L250.67 116.45L250.61 116.26L250.55 116.08L250.48 115.89L250.42 115.7L250.36 115.51L250.29 115.32L250.23 115.13L250.16 114.95L250.09 114.76L250.02 114.57L249.95 114.39L249.88 114.2L249.8 114.02L249.73 113.83L249.65 113.65L249.57 113.47L249.5 113.28L249.42 113.1L249.34 112.92L249.25 112.74L249.17 112.56L249.09 112.38L249 112.2L248.92 112.02L248.83 111.84L248.74 111.66L248.65 111.49L248.56 111.31L248.47 111.13L248.37 110.96L248.28 110.78L248.18 110.61L248.09 110.43L247.99 110.26L247.89 110.09L247.67 109.66L247.45 109.24L247.23 108.81L247.01 108.37L246.79 107.94L246.58 107.5L246.37 107.06L246.16 106.62L245.95 106.18L245.75 105.74L245.56 105.29L245.37 104.85L245.18 104.4L245.01 103.95L244.84 103.5L244.68 103.05L244.53 102.6L244.39 102.15L244.26 101.7L244.14 101.25L244.03 100.8L243.93 100.35L243.85 99.9L243.78 99.45L243.72 99L243.68 98.55L243.65 98.11L243.64 97.66L243.65 97.22L243.67 96.77L243.71 96.33L243.77 95.89L243.84 95.45L243.94 95.01L244.06 94.58L244.19 94.14L244.35 93.71L244.53 93.29L244.74 92.86L244.97 92.44L245.21 92.03L245.47 91.63L245.75 91.26L246.04 90.91L246.34 90.57L246.65 90.25L246.98 89.94L247.32 89.66L247.67 89.39L248.03 89.13L248.4 88.89L248.78 88.66L249.17 88.45L249.57 88.25L249.98 88.07L250.4 87.89L250.83 87.73L251.26 87.58L251.71 87.44L252.15 87.31L252.61 87.2L253.07 87.09L253.53 86.99L254 86.9L254.48 86.81L254.96 86.74L255.44 86.67L255.93 86.61L256.42 86.56L256.91 86.51L257.4 86.46L257.9 86.42L258.39 86.39L258.89 86.36L259.39 86.33L259.89 86.31L260.38 86.28L260.88 86.26L261.37 86.24L261.86 86.23L262.06 86.23L262.26 86.23L262.45 86.22L262.65 86.22L262.85 86.22L263.04 86.21L263.24 86.2L263.43 86.19L263.63 86.18L263.82 86.17L264.02 86.16L264.22 86.15L264.41 86.13L264.61 86.12L264.8 86.1L265 86.08L265.19 86.06L265.39 86.04L265.58 86.02L265.78 86L265.97 85.97L266.16 85.94L266.36 85.92L266.55 85.89L266.75 85.86L266.94 85.83L267.13 85.8L267.33 85.76L267.52 85.73L267.71 85.69L267.91 85.66L268.1 85.62L268.29 85.58L268.48 85.54L268.67 85.5L268.86 85.45L269.06 85.41L269.25 85.36L269.44 85.32L269.63 85.27L269.68 85.08L269.72 84.89L269.77 84.7L269.81 84.51L269.86 84.31L269.9 84.12L269.94 83.93L269.98 83.74L270.02 83.55L270.05 83.35L270.09 83.16L270.12 82.97L270.16 82.78L270.19 82.58L270.22 82.39L270.25 82.19L270.28 82L270.3 81.81L270.33 81.61L270.35 81.42L270.38 81.22L270.4 81.03L270.42 80.83L270.44 80.64L270.46 80.44L270.48 80.25L270.49 80.05L270.51 79.86L270.52 79.66L270.53 79.47L270.54 79.27L270.55 79.08L270.56 78.88L270.57 78.68L270.57 78.49L270.58 78.29L270.58 78.09L270.58 77.9L270.59 77.7L270.59 77.51L270.61 77.03L270.63 76.54L270.66 76.06L270.69 75.57L270.71 75.08L270.75 74.59L270.78 74.1L270.82 73.61L270.86 73.12L270.91 72.63L270.96 72.14L271.02 71.66L271.08 71.17L271.16 70.69L271.23 70.22L271.32 69.74L271.41 69.27L271.51 68.81L271.63 68.35L271.75 67.89L271.88 67.44L272.02 67L272.17 66.56L272.33 66.13L272.51 65.71L272.7 65.3L272.9 64.89L273.12 64.5L273.34 64.11L273.59 63.74L273.85 63.37L274.12 63.01L274.41 62.67L274.72 62.34L275.04 62.01L275.38 61.71L275.74 61.41L276.11 61.13L276.51 60.86L276.93 60.61L277.04 60.54L277.16 60.48L277.28 60.41L277.4 60.35L277.53 60.29L277.65 60.23L277.77 60.17L277.89 60.12L278.02 60.07L278.14 60.01L278.27 59.96L278.39 59.92L278.52 59.87L278.65 59.82L278.78 59.78L278.9 59.74L279.03 59.7L279.16 59.66L279.29 59.62L279.42 59.59L279.55 59.56L279.69 59.52L279.82 59.5L279.95 59.47L280.08 59.44L280.21 59.42L280.35 59.39L280.48 59.37L280.61 59.35L280.75 59.34L280.88 59.32L281.02 59.31L281.15 59.3L281.29 59.29L281.42 59.28L281.56 59.27L281.69 59.27L281.83 59.26L281.96 59.26L282.1 59.26L282.43 59.3L282.76 59.34L283.09 59.38L283.42 59.43L283.75 59.48L284.08 59.53L284.41 59.59L284.73 59.65L285.06 59.72L285.39 59.79L285.71 59.86L286.03 59.93L286.35 60.01L286.68 60.1L287 60.19L287.31 60.28L287.63 60.37L287.95 60.47L288.26 60.57L288.58 60.67L288.89 60.78L289.2 60.9L289.51 61.01L289.82 61.13L290.13 61.25L290.44 61.38L290.74 61.51L291.05 61.64L291.35 61.78L291.65 61.92L291.95 62.06L292.25 62.21L292.55 62.36L292.84 62.51L293.13 62.67L293.43 62.83L293.72 62.99L294 63.16L294.29 63.33L294.57 63.51L294.75 63.61L294.92 63.71L295.09 63.8L295.27 63.9L295.44 64L295.62 64.09L295.79 64.19L295.97 64.28L296.15 64.37L296.32 64.46L296.5 64.55L296.68 64.63L296.86 64.72L297.04 64.8L297.22 64.89L297.4 64.97L297.58 65.05L297.76 65.13L297.95 65.21L298.13 65.29L298.31 65.36L298.5 65.44L298.68 65.51L298.87 65.58L299.05 65.65L299.24 65.72L299.43 65.79L299.62 65.86L299.8 65.92L299.99 65.99L300.18 66.05L300.37 66.11L300.56 66.17L300.75 66.23L300.94 66.29L301.13 66.35L301.32 66.4L301.51 66.46L301.71 66.51L301.9 66.56L302.03 66.42L302.15 66.28L302.28 66.14L302.41 66L302.53 65.86L302.66 65.72L302.78 65.58L302.9 65.44L303.02 65.29L303.14 65.15L303.26 65L303.38 64.86L303.5 64.71L303.62 64.56L303.74 64.41L303.85 64.27L303.97 64.12L304.08 63.97L304.19 63.82L304.3 63.66L304.42 63.51L304.53 63.36L304.63 63.21L304.74 63.05L304.85 62.9L304.96 62.74L305.06 62.59L305.17 62.43L305.27 62.27L305.37 62.12L305.48 61.96L305.58 61.8L305.68 61.64L305.77 61.48L305.87 61.32L305.97 61.16L306.07 60.99L306.16 60.83L306.26 60.67L306.35 60.5L306.61 60.09L306.88 59.68L307.14 59.27L307.41 58.86L307.69 58.45L307.96 58.03L308.24 57.62L308.52 57.21L308.81 56.8L309.1 56.4L309.39 56L309.68 55.6L309.99 55.21L310.29 54.83L310.6 54.45L310.92 54.08L311.24 53.71L311.56 53.35L311.89 53.01L312.23 52.67L312.57 52.34L312.92 52.02L313.28 51.72L313.64 51.43L314.01 51.15L314.38 50.88L314.76 50.63L315.15 50.39L315.55 50.16L315.96 49.96L316.37 49.77L316.79 49.59L317.22 49.44L317.66 49.3L318.11 49.19L318.56 49.09L319.03 49.01L319.5 48.96L319.98 48.92L320.48 48.91L320.97 48.92L321.46 48.96ZM355.32 121.37L354.86 121.4L354.4 121.45L353.94 121.5L353.49 121.57L353.04 121.66L352.59 121.75L352.15 121.85L351.71 121.97L351.27 122.1L350.84 122.24L350.41 122.39L349.98 122.56L349.56 122.73L349.15 122.92L348.74 123.11L348.33 123.32L347.93 123.54L347.54 123.77L347.15 124.01L346.77 124.26L346.4 124.52L346.03 124.8L345.67 125.08L345.31 125.37L344.96 125.68L344.62 125.99L344.29 126.31L343.63 127.01L343.02 127.74L342.46 128.49L341.94 129.26L341.47 130.06L341.04 130.87L340.67 131.7L340.34 132.55L340.06 133.41L339.82 134.28L339.63 135.16L339.49 136.05L339.4 136.94L339.35 137.84L339.35 138.73L339.4 139.63L339.5 140.52L339.64 141.41L339.83 142.29L340.06 143.16L340.35 144.02L340.68 144.86L341.06 145.69L341.48 146.51L341.95 147.3L342.47 148.08L343.04 148.83L343.65 149.55L344.32 150.25L345.01 150.91L345.74 151.52L346.49 152.08L347.27 152.6L348.06 153.07L348.88 153.5L349.71 153.87L350.55 154.2L351.41 154.48L352.29 154.72L353.17 154.91L354.05 155.05L354.94 155.14L355.84 155.19L356.74 155.19L357.63 155.14L358.52 155.04L359.41 154.9L360.29 154.71L361.16 154.48L362.02 154.19L362.87 153.86L363.7 153.48L364.51 153.06L365.3 152.58L366.08 152.07L366.83 151.5L367.55 150.89L368.25 150.22L368.42 150.06L368.58 149.89L368.74 149.72L368.9 149.55L369.06 149.38L369.22 149.2L369.37 149.02L369.52 148.84L369.66 148.66L369.81 148.48L369.95 148.29L370.09 148.1L370.22 147.91L370.35 147.72L370.48 147.53L370.61 147.34L370.73 147.14L370.85 146.94L370.97 146.74L371.08 146.54L371.19 146.34L371.3 146.13L371.4 145.93L371.5 145.72L371.6 145.51L371.69 145.3L371.78 145.09L371.87 144.87L371.95 144.66L371.96 144.63L371.97 144.61L371.98 144.58L371.99 144.55L372 144.53L372.01 144.5L372.02 144.47L372.03 144.44L372.04 144.42L372.05 144.39L372.05 144.36L372.06 144.33L372.07 144.31L372.08 144.28L372.08 144.25L372.09 144.22L372.1 144.2L372.11 144.17L372.11 144.14L372.12 144.11L372.12 144.08L372.13 144.06L372.14 144.03L372.14 144L372.15 143.97L372.15 143.94L372.16 143.92L372.16 143.89L372.16 143.86L372.19 143.66L372.2 143.46L372.2 143.26L372.19 143.07L372.17 142.88L372.14 142.69L372.1 142.5L372.04 142.32L371.98 142.14L371.91 141.96L371.83 141.79L371.75 141.62L371.65 141.46L371.55 141.31L371.43 141.16L371.31 141.01L371.19 140.87L371.05 140.74L370.91 140.62L370.76 140.5L370.6 140.39L370.44 140.29L370.27 140.2L370.1 140.12L369.92 140.04L369.74 139.98L369.55 139.93L369.35 139.88L369.16 139.85L368.12 139.69L367.96 139.67L367.79 139.66L367.63 139.66L367.47 139.66L367.31 139.67L367.15 139.69L366.99 139.72L366.84 139.75L366.68 139.79L366.53 139.83L366.38 139.88L366.24 139.94L366.09 140.01L365.95 140.08L365.82 140.16L365.68 140.24L365.55 140.33L365.43 140.42L365.31 140.52L365.19 140.63L365.08 140.74L364.97 140.86L364.87 140.98L364.77 141.11L364.68 141.24L364.59 141.38L364.51 141.52L364.44 141.66L364.37 141.81L364.32 141.92L364.27 142.02L364.22 142.13L364.17 142.23L364.12 142.33L364.07 142.43L364.01 142.53L363.95 142.63L363.9 142.73L363.84 142.83L363.78 142.93L363.71 143.03L363.65 143.12L363.59 143.22L363.52 143.31L363.45 143.4L363.39 143.5L363.32 143.59L363.25 143.68L363.18 143.77L363.1 143.86L363.03 143.94L362.95 144.03L362.88 144.12L362.8 144.2L362.72 144.29L362.64 144.37L362.56 144.45L362.48 144.53L362.11 144.88L361.73 145.2L361.34 145.5L360.93 145.77L360.52 146.01L360.09 146.24L359.65 146.43L359.21 146.61L358.76 146.76L358.3 146.88L357.84 146.98L357.38 147.05L356.91 147.1L356.44 147.13L355.97 147.13L355.5 147.1L355.03 147.05L354.57 146.98L354.11 146.88L353.65 146.76L353.2 146.61L352.75 146.43L352.32 146.24L351.89 146.01L351.47 145.77L351.07 145.5L350.67 145.2L350.29 144.88L349.93 144.53L349.49 144.07L349.52 144.06L349.54 144.05L349.57 144.04L349.6 144.03L349.62 144.02L349.65 144.02L349.68 144.01L349.7 144L349.73 143.99L349.76 143.98L349.78 143.97L349.81 143.96L349.83 143.95L349.86 143.94L349.89 143.93L349.91 143.92L349.94 143.9L349.96 143.89L349.99 143.88L350.01 143.87L350.04 143.86L350.06 143.85L350.09 143.83L350.11 143.82L350.14 143.81L350.16 143.79L350.19 143.78L350.21 143.77L350.24 143.75L369.05 133.58L369.07 133.58L369.08 133.57L369.09 133.56L369.1 133.56L369.12 133.55L369.14 133.53L369.15 133.53L369.17 133.52L369.18 133.51L369.2 133.5L369.22 133.49L369.23 133.48L369.24 133.47L369.27 133.46L369.28 133.45L369.29 133.44L369.3 133.43L369.32 133.42L369.33 133.42L369.34 133.41L369.35 133.4L369.36 133.39L369.38 133.38L369.39 133.37L369.41 133.36L369.57 133.24L369.72 133.11L369.86 132.97L370 132.83L370.12 132.68L370.24 132.52L370.34 132.37L370.44 132.2L370.53 132.03L370.61 131.86L370.67 131.69L370.73 131.51L370.78 131.33L370.82 131.14L370.85 130.96L370.87 130.77L370.88 130.58L370.88 130.39L370.88 130.21L370.86 130.02L370.83 129.83L370.79 129.65L370.74 129.46L370.68 129.28L370.61 129.1L370.52 128.92L370.43 128.75L370.33 128.58L370.22 128.41L370.04 128.15L369.94 128.01L369.84 127.87L369.74 127.73L369.64 127.6L369.54 127.46L369.43 127.33L369.33 127.2L369.22 127.07L369.11 126.94L369 126.81L368.88 126.69L368.77 126.56L368.65 126.44L368.54 126.32L368.42 126.2L368.3 126.08L368.17 125.96L368.05 125.85L367.92 125.73L367.8 125.62L367.67 125.51L367.54 125.4L367.41 125.29L367.28 125.19L367.14 125.08L367.01 124.98L366.87 124.88L366.73 124.78L366.59 124.68L366.28 124.46L365.96 124.24L365.64 124.03L365.32 123.83L364.99 123.64L364.66 123.45L364.32 123.27L363.98 123.1L363.63 122.94L363.29 122.78L362.94 122.63L362.58 122.49L362.23 122.36L361.87 122.24L361.51 122.12L361.14 122.01L360.78 121.91L360.41 121.82L360.04 121.73L359.66 121.66L359.29 121.59L358.91 121.53L358.54 121.48L358.16 121.43L357.78 121.4L357.39 121.37L357.01 121.35L356.63 121.35L356.24 121.34L355.78 121.35L355.32 121.37ZM322.36 121.35L321.56 121.43L320.76 121.55L319.98 121.71L319.19 121.91L318.42 122.14L317.66 122.42L316.9 122.73L316.16 123.07L315.44 123.46L314.73 123.88L314.04 124.34L313.37 124.84L312.72 125.38L312.09 125.95L311.42 126.63L310.79 127.34L310.22 128.07L309.68 128.82L309.2 129.6L308.76 130.4L308.37 131.22L308.02 132.05L307.72 132.9L307.47 133.76L307.26 134.62L307.1 135.5L306.99 136.38L306.92 137.27L306.9 138.16L306.93 139.05L307 139.94L307.12 140.82L307.29 141.7L307.51 142.56L307.77 143.42L308.08 144.27L308.43 145.1L308.84 145.92L309.29 146.72L309.78 147.5L310.33 148.26L310.92 148.99L311.56 149.7L312.24 150.37L312.95 150.99L313.68 151.57L314.43 152.1L315.21 152.59L316.01 153.03L316.83 153.42L317.66 153.76L318.51 154.06L319.37 154.32L320.23 154.52L321.11 154.68L321.99 154.8L322.88 154.86L323.77 154.88L324.66 154.86L325.55 154.78L326.43 154.66L327.31 154.49L328.17 154.28L329.03 154.02L329.88 153.71L330.71 153.35L331.53 152.95L332.33 152.5L333.11 152L333.87 151.46L334.6 150.86L335.31 150.22L335.47 150.06L335.64 149.89L335.8 149.72L335.96 149.55L336.12 149.38L336.27 149.2L336.43 149.02L336.58 148.84L336.72 148.66L336.87 148.48L337.01 148.29L337.15 148.1L337.29 147.91L337.42 147.72L337.55 147.52L337.68 147.33L337.81 147.13L337.93 146.93L338.05 146.73L338.17 146.52L338.29 146.32L338.4 146.11L338.51 145.9L338.62 145.69L338.72 145.48L338.82 145.26L338.92 145.05L339.02 144.83L339.11 144.61L339.12 144.58L339.13 144.56L339.14 144.53L339.15 144.5L339.16 144.47L339.17 144.45L339.18 144.42L339.19 144.39L339.2 144.37L339.21 144.34L339.21 144.31L339.22 144.28L339.23 144.26L339.24 144.23L339.24 144.2L339.25 144.17L339.26 144.14L339.27 144.12L339.27 144.09L339.28 144.06L339.28 144.03L339.29 144L339.3 143.98L339.3 143.95L339.31 143.92L339.31 143.89L339.32 143.86L339.32 143.84L339.32 143.81L339.35 143.61L339.36 143.41L339.36 143.21L339.35 143.02L339.33 142.82L339.3 142.63L339.26 142.45L339.2 142.26L339.14 142.08L339.07 141.91L338.99 141.74L338.91 141.57L338.81 141.41L338.71 141.25L338.59 141.1L338.47 140.96L338.35 140.82L338.21 140.69L338.07 140.57L337.92 140.45L337.76 140.34L337.6 140.24L337.43 140.15L337.26 140.07L337.08 139.99L336.9 139.93L336.71 139.87L336.51 139.83L336.32 139.8L335.28 139.64L335.12 139.62L334.95 139.61L334.79 139.61L334.63 139.61L334.47 139.62L334.31 139.64L334.15 139.66L334 139.7L333.84 139.73L333.69 139.78L333.54 139.83L333.4 139.89L333.25 139.96L333.11 140.03L332.98 140.1L332.84 140.19L332.71 140.28L332.59 140.37L332.47 140.47L332.35 140.58L332.24 140.69L332.13 140.81L332.03 140.93L331.93 141.06L331.84 141.19L331.75 141.32L331.67 141.47L331.6 141.61L331.53 141.76L331.48 141.87L331.43 141.97L331.38 142.08L331.33 142.18L331.28 142.28L331.23 142.38L331.17 142.48L331.11 142.58L331.06 142.68L331 142.78L330.94 142.88L330.87 142.97L330.81 143.07L330.75 143.16L330.68 143.26L330.62 143.35L330.55 143.44L330.48 143.54L330.41 143.63L330.34 143.72L330.26 143.8L330.19 143.89L330.11 143.98L330.04 144.07L329.96 144.15L329.88 144.23L329.8 144.32L329.72 144.4L329.64 144.48L329.27 144.83L328.89 145.15L328.5 145.44L328.09 145.72L327.68 145.96L327.25 146.19L326.81 146.38L326.37 146.56L325.92 146.7L325.46 146.83L325 146.93L324.54 147L324.07 147.05L323.6 147.08L323.13 147.08L322.66 147.05L322.19 147L321.73 146.93L321.27 146.83L320.81 146.7L320.36 146.56L319.91 146.38L319.48 146.19L319.05 145.96L318.63 145.72L318.23 145.44L317.84 145.15L317.45 144.83L317.09 144.48L316.88 144.27L336.24 133.53L336.25 133.53L336.26 133.52L336.28 133.51L336.3 133.5L336.31 133.49L336.33 133.48L336.34 133.48L336.36 133.46L336.37 133.45L336.39 133.45L336.4 133.44L336.41 133.43L336.42 133.42L336.44 133.41L336.45 133.41L336.46 133.4L336.47 133.39L336.48 133.38L336.5 133.37L336.51 133.37L336.52 133.36L336.53 133.35L336.54 133.34L336.55 133.33L336.58 133.32L336.59 133.31L336.75 133.19L336.9 133.06L337.04 132.92L337.17 132.78L337.3 132.63L337.41 132.47L337.52 132.31L337.61 132.15L337.7 131.98L337.78 131.81L337.85 131.63L337.9 131.45L337.95 131.27L337.99 131.09L338.02 130.9L338.04 130.72L338.05 130.53L338.05 130.34L338.04 130.15L338.02 129.96L337.99 129.78L337.95 129.59L337.9 129.41L337.84 129.22L337.77 129.04L337.69 128.87L337.59 128.69L337.49 128.52L337.38 128.36L337.28 128.22L337.17 128.08L337.07 127.94L336.96 127.8L336.85 127.66L336.74 127.53L336.63 127.39L336.52 127.26L336.41 127.12L336.29 126.99L336.18 126.86L336.06 126.73L335.94 126.61L335.82 126.48L335.7 126.36L335.58 126.23L335.46 126.11L335.33 125.99L335.21 125.87L335.08 125.75L334.95 125.63L334.82 125.51L334.69 125.4L334.56 125.28L334.43 125.17L334.29 125.06L334.16 124.95L334.02 124.84L333.88 124.73L333.19 124.24L332.49 123.78L331.76 123.36L331.03 122.97L330.28 122.63L329.51 122.33L328.74 122.06L327.96 121.84L327.17 121.65L326.37 121.51L325.57 121.4L324.77 121.33L323.97 121.29L323.16 121.3L322.36 121.35ZM303.63 121.31L303.16 121.37L302.7 121.44L302.24 121.52L301.78 121.62L301.33 121.73L300.88 121.86L300.44 122L300 122.15L299.56 122.32L299.13 122.5L298.71 122.69L298.29 122.9L297.88 123.12L297.47 123.35L297.07 123.59L296.68 123.85L296.3 124.12L295.92 124.4L295.84 124.16L295.75 123.93L295.65 123.71L295.53 123.5L295.4 123.3L295.25 123.11L295.1 122.93L294.93 122.77L294.75 122.61L294.56 122.47L294.36 122.34L294.16 122.22L293.94 122.11L293.72 122.02L293.49 121.95L293.26 121.89L293.02 121.85L292.78 121.82L292.53 121.81L291.55 121.81L291.25 121.82L290.96 121.86L290.67 121.92L290.4 122L290.13 122.1L289.88 122.23L289.63 122.37L289.4 122.53L289.19 122.71L288.99 122.9L288.8 123.11L288.63 123.34L288.48 123.57L288.35 123.82L288.23 124.08L288.14 124.36L288.07 124.64L288.02 124.93L288 125.23L288 151.1L288.01 151.41L288.05 151.71L288.12 152L288.2 152.28L288.31 152.55L288.44 152.81L288.59 153.06L288.75 153.29L288.94 153.51L289.14 153.71L289.36 153.9L289.59 154.06L289.84 154.21L290.1 154.34L290.37 154.45L290.65 154.54L290.94 154.6L291.24 154.64L291.55 154.65L292.56 154.65L292.86 154.64L293.16 154.6L293.45 154.54L293.73 154.45L294 154.34L294.26 154.21L294.51 154.06L294.74 153.9L294.96 153.71L295.16 153.51L295.35 153.29L295.52 153.06L295.66 152.81L295.79 152.55L295.9 152.28L295.99 152L296.05 151.71L296.09 151.41L296.1 151.1L296.1 139.02L296.1 138.62L296.12 138.22L296.15 137.82L296.19 137.43L296.25 137.04L296.32 136.65L296.4 136.26L296.49 135.88L296.6 135.5L296.73 135.12L296.86 134.75L297.01 134.38L297.17 134.02L297.35 133.67L297.53 133.32L297.73 132.97L297.95 132.63L298.17 132.3L298.4 131.98L298.65 131.7L298.9 131.43L299.16 131.17L299.44 130.93L299.72 130.7L300.02 130.49L300.32 130.29L300.63 130.1L300.95 129.93L301.28 129.78L301.62 129.64L301.96 129.51L302.31 129.4L302.66 129.31L303.02 129.24L303.38 129.18L303.75 129.14L304.11 129.11L304.49 129.11L304.78 129.08L305.06 129.03L305.34 128.96L305.61 128.87L305.87 128.76L306.11 128.63L306.35 128.48L306.57 128.31L306.78 128.13L306.97 127.93L307.15 127.72L307.31 127.49L307.45 127.26L307.57 127.01L307.68 126.74L307.76 126.47L307.82 126.19L307.86 125.91L307.88 125.61L307.88 124.79L307.88 124.77L307.88 124.75L307.88 124.74L307.87 124.72L307.87 124.7L307.87 124.68L307.87 124.66L307.87 124.64L307.87 124.63L307.87 124.61L307.87 124.58L307.87 124.57L307.84 124.27L307.78 123.97L307.7 123.69L307.59 123.41L307.47 123.15L307.32 122.9L307.16 122.66L306.97 122.44L306.77 122.23L306.56 122.05L306.33 121.87L306.08 121.72L305.83 121.59L305.56 121.48L305.28 121.39L305 121.32L304.7 121.28L304.4 121.26L304.1 121.27L303.63 121.31ZM281.62 105.52L281.19 105.54L280.77 105.59L280.35 105.64L279.93 105.71L279.52 105.79L279.1 105.88L278.69 105.99L278.29 106.11L277.89 106.24L277.49 106.38L277.1 106.54L276.71 106.7L276.33 106.88L275.96 107.07L275.58 107.27L275.22 107.49L274.86 107.71L274.51 107.95L274.16 108.2L273.83 108.45L273.5 108.72L273.17 109L272.86 109.29L272.55 109.6L272.26 109.92L271.98 110.26L271.7 110.6L271.44 110.95L271.19 111.3L270.95 111.66L270.72 112.03L270.51 112.4L270.3 112.78L270.1 113.17L269.92 113.56L269.75 113.96L269.59 114.36L269.44 114.76L269.3 115.17L269.18 115.58L269.07 116L268.96 116.42L268.88 116.84L268.8 117.27L268.74 117.7L268.68 118.13L268.65 118.56L268.62 119L268.61 119.43L268.61 119.87L268.62 120.31L268.62 151.1L268.62 151.32L268.64 151.53L268.68 151.74L268.72 151.95L268.77 152.15L268.84 152.34L268.92 152.53L269 152.72L269.1 152.89L269.21 153.07L269.33 153.23L269.45 153.39L269.59 153.54L269.73 153.68L269.88 153.82L270.04 153.94L270.2 154.06L270.37 154.17L270.55 154.26L270.74 154.35L270.93 154.43L271.12 154.49L271.32 154.55L271.53 154.59L271.74 154.62L271.95 154.64L272.16 154.65L273.12 154.65L273.34 154.64L273.55 154.62L273.76 154.59L273.96 154.55L274.16 154.49L274.36 154.43L274.55 154.35L274.73 154.26L274.91 154.17L275.08 154.06L275.25 153.94L275.41 153.82L275.56 153.68L275.7 153.54L275.83 153.39L275.96 153.23L276.08 153.07L276.18 152.89L276.28 152.72L276.37 152.53L276.44 152.34L276.51 152.15L276.57 151.95L276.61 151.74L276.64 151.53L276.66 151.32L276.67 151.1L276.67 129.63L282.15 129.63L282.37 129.62L282.58 129.6L282.79 129.57L282.99 129.52L283.19 129.47L283.39 129.4L283.58 129.33L283.76 129.24L283.94 129.14L284.11 129.03L284.28 128.92L284.44 128.79L284.59 128.66L284.73 128.51L284.86 128.36L284.99 128.21L285.11 128.04L285.21 127.87L285.31 127.69L285.4 127.51L285.48 127.32L285.54 127.12L285.6 126.92L285.64 126.72L285.67 126.51L285.69 126.3L285.7 126.08L285.7 125.23L285.69 125.01L285.67 124.8L285.64 124.59L285.6 124.38L285.54 124.18L285.48 123.99L285.4 123.8L285.31 123.61L285.21 123.44L285.11 123.26L284.99 123.1L284.86 122.94L284.73 122.79L284.59 122.65L284.44 122.51L284.28 122.39L284.11 122.27L283.94 122.16L283.76 122.07L283.58 121.98L283.39 121.9L283.19 121.84L282.99 121.78L282.79 121.74L282.58 121.71L282.37 121.69L282.15 121.68L276.64 121.68L276.64 119.3L276.65 119.13L276.67 118.96L276.69 118.79L276.72 118.62L276.75 118.46L276.78 118.29L276.82 118.13L276.86 117.96L276.91 117.8L276.96 117.64L277.01 117.48L277.07 117.32L277.13 117.17L277.2 117.01L277.27 116.86L277.34 116.71L277.42 116.56L277.5 116.41L277.59 116.27L277.68 116.12L277.77 115.98L277.87 115.84L277.97 115.71L278.07 115.57L278.18 115.44L278.29 115.31L278.4 115.18L278.52 115.04L278.65 114.89L278.78 114.76L278.92 114.62L279.06 114.5L279.2 114.38L279.35 114.26L279.5 114.15L279.66 114.04L279.82 113.94L279.98 113.85L280.14 113.76L280.31 113.67L280.48 113.59L280.66 113.52L280.83 113.46L281.01 113.4L281.19 113.34L281.37 113.29L281.55 113.25L281.74 113.22L281.93 113.19L282.11 113.17L282.3 113.15L282.49 113.14L282.69 113.14L282.88 113.14L284.09 113.14L284.3 113.13L284.5 113.1L284.7 113.07L284.89 113.02L285.08 112.96L285.27 112.9L285.45 112.82L285.62 112.73L285.79 112.64L285.95 112.53L286.11 112.42L286.26 112.3L286.4 112.17L286.54 112.04L286.67 111.89L286.79 111.74L286.9 111.58L287.01 111.42L287.1 111.25L287.19 111.08L287.27 110.9L287.33 110.71L287.39 110.52L287.44 110.33L287.47 110.13L287.5 109.93L287.51 109.72L287.66 109.72L287.66 109.05L287.66 108.84L287.64 108.62L287.61 108.41L287.56 108.21L287.51 108.01L287.44 107.81L287.37 107.62L287.28 107.44L287.18 107.26L287.07 107.09L286.96 106.93L286.83 106.77L286.7 106.62L286.55 106.47L286.4 106.34L286.25 106.21L286.08 106.1L285.91 105.99L285.73 105.89L285.55 105.81L285.36 105.73L285.16 105.66L284.96 105.61L284.76 105.56L284.55 105.53L284.34 105.51L284.12 105.51L282.9 105.51L282.47 105.5L282.05 105.5L281.62 105.52Z" id="b26G2Wm9JY"></path><path d="M196.39 266.96C196.39 266.96 196.39 266.96 196.39 266.96C196.39 222.11 196.39 182.84 196.39 149.15C196.39 62.53 196.39 12.81 196.39 0C196.39 0 196.39 0 196.39 0C344.72 0 427.13 0 443.61 0C443.61 0 443.61 0 443.61 0C443.61 160.17 443.61 249.16 443.61 266.96C443.61 266.96 443.61 266.96 443.61 266.96C295.28 266.96 212.87 266.96 196.39 266.96Z" id="aIwLKYVUq"></path></defs><g><g><use xlink:href="#a17DD17gUw" opacity="1" fill="#000000" fill-opacity="1"></use><g><use xlink:href="#a17DD17gUw" opacity="1" fill-opacity="0" stroke="#000000" stroke-width="1" stroke-opacity="0"></use></g></g><g><use xlink:href="#k1qGz8syxE" opacity="1" fill="#000000" fill-opacity="1"></use><g><use xlink:href="#k1qGz8syxE" opacity="1" fill-opacity="0" stroke="#000000" stroke-width="1" stroke-opacity="0"></use></g></g><g><use xlink:href="#b26G2Wm9JY" opacity="1" fill="#000000" fill-opacity="1"></use><g><use xlink:href="#b26G2Wm9JY" opacity="1" fill-opacity="0" stroke="#000000" stroke-width="1" stroke-opacity="0"></use></g></g><g><use xlink:href="#aIwLKYVUq" opacity="1" fill="#000000" fill-opacity="0"></use><g><use xlink:href="#aIwLKYVUq" opacity="1" fill-opacity="0" stroke="#000000" stroke-width="1" stroke-opacity="1"></use></g></g></g></svg>