<?xml version="1.0" encoding="UTF-8" standalone="no"?>
<!DOCTYPE svg PUBLIC "-//W3C//DTD SVG 1.1//EN" "http://www.w3.org/Graphics/SVG/1.1/DTD/svg11.dtd">
<svg version="1.1" xmlns="http://www.w3.org/2000/svg" xmlns:xlink="http://www.w3.org/1999/xlink" preserveAspectRatio="xMidYMid meet" viewBox="196.38928507100036 0 247.22142985799923 266.95760933094647" width="247.22" height="266.96"><defs><path d="M314.48 47.47L317.38 47.74L320.25 48.12L323.09 48.6L325.89 49.18L328.66 49.86L331.39 50.64L334.08 51.52L336.73 52.49L339.33 53.55L341.88 54.71L344.39 55.95L346.85 57.28L349.25 58.69L351.6 60.19L353.89 61.76L356.12 63.42L358.29 65.16L360.4 66.97L362.44 68.85L364.41 70.8L366.31 72.83L368.15 74.92L369.9 77.08L371.58 79.31L373.19 81.59L374.71 83.94L376.15 86.35L377.51 88.81L378.78 91.33L379.96 93.9L381.05 96.52L382.04 99.19L382.94 101.91L383.75 104.67L384.45 107.48L385.06 110.33L385.56 113.22L385.95 116.14L385.68 116.07L385.41 116L385.14 115.94L384.86 115.89L384.59 115.84L384.32 115.8L384.04 115.77L383.77 115.74L383.5 115.72L383.22 115.71L382.95 115.71L382.67 115.71L382.4 115.71L382.13 115.73L381.85 115.75L381.58 115.78L381.31 115.81L381.04 115.85L380.77 115.9L380.51 115.95L380.24 116.01L379.98 116.07L379.71 116.14L379.45 116.22L379.19 116.31L378.93 116.4L378.68 116.5L378.43 116.6L378.17 116.71L377.93 116.82L377.68 116.95L377.44 117.07L377.2 117.21L376.96 117.35L376.72 117.49L376.49 117.65L376.26 117.81L376.04 117.97L375.82 118.14L375.6 118.32L375.57 117.83L375.52 117.35L375.45 116.87L375.36 116.4L375.25 115.94L375.13 115.48L374.99 115.04L374.83 114.6L374.66 114.17L374.47 113.74L374.26 113.33L374.04 112.93L373.8 112.53L373.55 112.15L373.29 111.78L373.01 111.42L372.72 111.07L372.41 110.73L372.09 110.4L371.76 110.09L371.42 109.79L371.07 109.5L370.7 109.22L370.33 108.96L369.95 108.72L369.55 108.48L369.15 108.27L368.73 108.07L368.31 107.88L367.88 107.71L367.45 107.56L367 107.42L366.55 107.3L366.09 107.2L365.63 107.12L365.16 107.05L364.68 107.01L364.2 106.98L363.72 106.97L363.23 106.98L362.74 107.01L362.26 107.06L361.78 107.13L361.31 107.22L360.85 107.33L360.4 107.45L359.95 107.59L359.51 107.75L359.08 107.92L358.66 108.11L358.24 108.32L357.84 108.54L357.45 108.78L357.06 109.03L356.69 109.3L356.33 109.57L355.98 109.87L355.64 110.17L355.31 110.49L355 110.82L354.7 111.16L354.41 111.51L354.14 111.88L353.88 112.25L353.63 112.64L353.4 113.03L353.18 113.43L352.98 113.85L352.79 114.27L352.63 114.7L352.47 115.13L352.34 115.58L352.22 116.03L352.12 116.49L352.03 116.95L351.97 117.42L351.92 117.9L351.89 118.38L351.88 118.86L351.9 119.35L351.9 123.62L351.66 123.43L351.41 123.26L351.17 123.08L350.92 122.92L350.67 122.76L350.41 122.61L350.15 122.46L349.89 122.33L349.62 122.2L349.35 122.07L349.08 121.96L348.81 121.85L348.53 121.75L348.25 121.65L347.97 121.57L347.69 121.49L347.4 121.42L347.12 121.35L346.83 121.29L346.54 121.24L346.25 121.2L345.96 121.17L345.67 121.14L345.38 121.12L345.08 121.11L344.79 121.1L344.5 121.1L344.2 121.11L343.91 121.13L343.61 121.16L343.32 121.19L343.03 121.23L342.74 121.28L342.44 121.34L342.15 121.4L341.86 121.47L341.57 121.55L341.29 121.64L341 121.73L340.72 121.84L340.65 121.23L340.57 120.62L340.48 120.02L340.38 119.42L340.27 118.82L340.15 118.23L340.01 117.63L339.87 117.05L339.71 116.46L339.54 115.88L339.37 115.3L339.18 114.73L338.98 114.16L338.77 113.59L338.55 113.03L338.32 112.48L338.08 111.92L337.83 111.38L337.57 110.83L337.3 110.3L337.02 109.76L336.73 109.24L336.43 108.71L336.12 108.2L335.8 107.69L335.48 107.18L335.14 106.68L334.79 106.19L334.43 105.7L334.07 105.22L333.69 104.75L333.31 104.28L332.91 103.82L332.51 103.37L332.1 102.92L331.68 102.48L331.25 102.05L330.81 101.63L330.36 101.21L329.91 100.8L328.89 99.94L327.84 99.13L326.78 98.37L325.69 97.66L324.58 96.99L323.45 96.38L322.31 95.81L321.15 95.29L319.97 94.82L318.78 94.4L317.58 94.03L316.37 93.7L315.15 93.42L313.92 93.19L312.69 93.01L311.45 92.88L310.22 92.79L308.97 92.75L307.73 92.76L306.49 92.81L305.26 92.92L304.02 93.07L302.8 93.26L301.58 93.51L300.37 93.8L299.17 94.14L297.98 94.52L296.81 94.95L295.65 95.43L294.51 95.95L293.38 96.52L292.27 97.14L291.19 97.8L290.12 98.51L289.08 99.26L288.07 100.06L287.08 100.91L286.12 101.8L285.19 102.74L284.29 103.72L283.43 104.74L282.62 105.78L281.86 106.85L281.14 107.94L280.48 109.04L279.86 110.17L279.3 111.32L278.78 112.48L278.31 113.65L277.89 114.84L277.51 116.04L277.19 117.25L276.91 118.47L276.68 119.7L276.5 120.93L276.36 122.17L276.27 123.41L276.24 124.65L276.24 125.89L276.3 127.13L276.4 128.37L276.55 129.6L276.75 130.83L276.99 132.05L277.28 133.26L277.62 134.45L278.01 135.64L278.44 136.82L278.91 137.98L279.44 139.12L280.01 140.25L280.62 141.35L281.29 142.44L281.99 143.5L282.75 144.54L283.55 145.56L284.39 146.54L285.29 147.51L286.22 148.44L287.21 149.34L288.22 150.2L289.27 151.01L290.33 151.77L291.42 152.48L292.53 153.15L293.66 153.76L294.8 154.33L295.96 154.85L297.14 155.32L298.33 155.74L299.53 156.11L300.74 156.44L301.96 156.72L303.19 156.95L304.42 157.13L305.66 157.26L306.9 157.35L308.14 157.39L309.38 157.38L310.62 157.33L311.85 157.22L313.09 157.07L314.31 156.88L315.53 156.63L316.74 156.34L317.94 156L319.13 155.62L320.3 155.19L321.46 154.71L322.61 154.19L323.73 153.62L324.84 153L325.92 152.34L326.99 151.63L328.03 150.88L329.04 150.08L330.03 149.23L330.99 148.34L331.92 147.4L332.82 146.42L332.82 183.61L332.4 183.33L331.97 183.05L331.52 182.76L331.05 182.47L330.57 182.18L330.08 181.89L329.57 181.6L329.05 181.32L328.51 181.04L327.97 180.76L327.42 180.49L326.85 180.22L326.28 179.97L325.7 179.72L325.11 179.49L324.52 179.26L323.92 179.05L323.31 178.86L322.7 178.68L322.09 178.51L321.47 178.37L320.85 178.24L320.23 178.13L319.61 178.05L318.99 177.99L318.37 177.95L317.75 177.94L317.13 177.95L316.52 177.99L315.91 178.06L315.3 178.16L314.7 178.29L314.1 178.45L313.51 178.64L312.93 178.87L312.36 179.14L311.79 179.44L311.24 179.78L310.69 180.16L310.15 180.58L309.44 181.2L308.78 181.82L308.16 182.43L307.6 183.03L307.08 183.63L306.61 184.23L306.19 184.82L305.8 185.4L305.45 185.97L305.14 186.54L304.87 187.09L304.64 187.64L304.43 188.17L304.26 188.7L304.12 189.21L304 189.72L303.91 190.2L303.85 190.68L303.8 191.14L303.78 191.59L303.78 192.02L303.79 192.44L303.82 192.84L303.86 193.23L303.92 193.59L303.98 193.94L304.06 194.28L304.14 194.59L304.22 194.88L304.31 195.15L304.4 195.4L304.49 195.63L304.57 195.84L304.66 196.02L304.74 196.19L304.81 196.32L304.87 196.44L304.92 196.53L304.95 196.59L304.98 196.62L310.57 202.96L308.6 202.96L305.39 202.9L302.22 202.71L299.07 202.39L295.97 201.95L292.91 201.38L289.89 200.7L286.92 199.91L283.99 199L281.12 197.98L278.3 196.85L275.53 195.61L272.82 194.27L270.17 192.84L267.59 191.3L265.07 189.67L262.62 187.94L260.24 186.13L257.93 184.22L255.7 182.23L253.55 180.16L251.48 178.01L249.49 175.78L247.58 173.47L245.77 171.09L244.04 168.64L242.41 166.12L240.87 163.54L239.44 160.89L238.1 158.18L236.86 155.41L235.73 152.59L234.71 149.72L233.8 146.79L233.01 143.82L232.33 140.8L231.76 137.74L231.32 134.64L231 131.49L230.81 128.32L230.75 125.11L230.81 121.9L231 118.72L231.32 115.58L231.76 112.48L232.33 109.42L233.01 106.4L233.8 103.43L234.71 100.5L235.73 97.63L236.86 94.8L238.1 92.04L239.44 89.33L240.87 86.68L242.41 84.1L244.04 81.58L245.77 79.13L247.58 76.75L249.49 74.44L251.48 72.21L253.55 70.06L255.7 67.98L257.93 66L260.24 64.09L262.62 62.28L265.07 60.55L267.59 58.92L270.17 57.38L272.82 55.94L275.53 54.61L278.3 53.37L281.12 52.24L283.99 51.22L286.92 50.31L289.89 49.52L292.91 48.84L295.97 48.27L299.07 47.83L302.22 47.51L305.39 47.32L308.6 47.25L311.55 47.31L314.48 47.47ZM303.12 58.53L300.43 58.8L297.77 59.19L295.14 59.67L292.55 60.26L290 60.94L287.49 61.72L285.03 62.6L282.61 63.57L280.23 64.63L277.91 65.77L275.64 67.01L273.42 68.33L271.26 69.73L269.16 71.21L267.12 72.76L265.14 74.4L263.22 76.1L261.38 77.88L259.6 79.73L257.89 81.64L256.26 83.62L254.7 85.66L253.22 87.76L251.82 89.92L250.5 92.14L249.26 94.41L248.11 96.73L247.05 99.11L246.08 101.53L245.21 103.99L244.42 106.5L243.74 109.05L243.15 111.64L242.67 114.27L242.29 116.93L242.01 119.62L241.84 122.34L241.78 125.1L241.78 125.22L241.79 125.35L241.81 125.47L241.82 125.6L241.85 125.72L241.87 125.84L241.9 125.96L241.94 126.07L241.98 126.19L242.03 126.3L242.07 126.41L242.13 126.52L242.18 126.62L242.25 126.73L242.31 126.83L242.38 126.92L242.45 127.02L242.53 127.11L242.61 127.2L242.69 127.28L242.77 127.37L242.86 127.44L242.95 127.52L243.05 127.59L243.15 127.66L243.25 127.73L243.35 127.79L243.45 127.84L243.56 127.9L243.67 127.95L243.78 127.99L243.9 128.03L244.01 128.07L244.13 128.1L244.25 128.13L244.37 128.15L244.5 128.17L244.62 128.18L244.75 128.19L244.87 128.19L245 128.19L245.13 128.18L245.25 128.17L245.38 128.15L245.5 128.13L245.62 128.1L245.74 128.07L245.85 128.03L245.97 127.99L246.08 127.95L246.19 127.9L246.3 127.84L246.4 127.79L246.5 127.73L246.6 127.66L246.7 127.59L246.8 127.52L246.89 127.44L246.98 127.37L247.06 127.28L247.14 127.2L247.22 127.11L247.3 127.02L247.37 126.92L247.44 126.83L247.5 126.73L247.57 126.62L247.62 126.52L247.68 126.41L247.72 126.3L247.77 126.19L247.81 126.07L247.85 125.96L247.88 125.84L247.9 125.72L247.93 125.6L247.94 125.47L247.96 125.35L247.96 125.22L247.97 125.1L248.02 122.6L248.17 120.13L248.43 117.68L248.77 115.27L249.21 112.88L249.74 110.53L250.37 108.22L251.08 105.94L251.87 103.71L252.75 101.51L253.71 99.36L254.76 97.25L255.88 95.19L257.07 93.18L258.35 91.22L259.69 89.31L261.1 87.46L262.59 85.66L264.14 83.92L265.75 82.25L267.43 80.63L269.16 79.09L270.96 77.6L272.81 76.19L274.72 74.85L276.68 73.58L278.69 72.38L280.75 71.26L282.86 70.22L285.01 69.26L287.21 68.38L289.45 67.59L291.72 66.88L294.04 66.26L296.39 65.73L298.77 65.29L301.19 64.94L303.63 64.69L306.1 64.54L308.6 64.49L308.73 64.49L308.85 64.48L308.98 64.47L309.1 64.45L309.22 64.43L309.34 64.4L309.46 64.37L309.58 64.33L309.69 64.29L309.8 64.25L309.91 64.2L310.02 64.14L310.13 64.09L310.23 64.03L310.33 63.96L310.43 63.89L310.52 63.82L310.61 63.74L310.7 63.67L310.79 63.58L310.87 63.5L310.95 63.41L311.02 63.32L311.1 63.22L311.16 63.13L311.23 63.03L311.29 62.92L311.35 62.82L311.4 62.71L311.45 62.6L311.49 62.49L311.54 62.37L311.57 62.26L311.6 62.14L311.63 62.02L311.65 61.9L311.67 61.78L311.68 61.65L311.69 61.52L311.69 61.4L311.69 61.27L311.68 61.14L311.67 61.02L311.65 60.9L311.63 60.77L311.6 60.65L311.57 60.54L311.54 60.42L311.49 60.3L311.45 60.19L311.4 60.08L311.35 59.98L311.29 59.87L311.23 59.77L311.16 59.67L311.1 59.57L311.02 59.48L310.95 59.38L310.87 59.3L310.79 59.21L310.7 59.13L310.61 59.05L310.52 58.97L310.43 58.9L310.33 58.83L310.23 58.77L310.13 58.71L310.02 58.65L309.91 58.6L309.8 58.55L309.69 58.5L309.58 58.46L309.46 58.43L309.34 58.39L309.22 58.37L309.1 58.34L308.98 58.33L308.85 58.31L308.73 58.31L308.6 58.3L305.85 58.36L303.12 58.53ZM303.63 76.18L301.16 76.49L298.74 76.93L296.36 77.48L294.03 78.14L291.75 78.91L289.51 79.79L287.34 80.78L285.22 81.86L283.16 83.05L281.16 84.32L279.23 85.7L277.38 87.16L275.59 88.7L273.88 90.33L272.26 92.04L270.71 93.82L269.25 95.68L267.88 97.61L266.6 99.6L265.42 101.66L264.33 103.78L263.35 105.96L262.47 108.19L261.69 110.48L261.03 112.81L260.48 115.19L260.05 117.61L259.74 120.07L259.55 122.57L259.48 125.1L259.49 125.26L259.5 125.41L259.52 125.57L259.55 125.72L259.58 125.87L259.62 126.02L259.67 126.16L259.73 126.3L259.79 126.44L259.86 126.57L259.93 126.7L260.01 126.83L260.1 126.95L260.19 127.06L260.29 127.18L260.39 127.28L260.5 127.39L260.61 127.48L260.73 127.57L260.85 127.66L260.97 127.74L261.1 127.82L261.23 127.88L261.37 127.95L261.51 128L261.66 128.05L261.8 128.09L261.95 128.13L262.1 128.15L262.26 128.17L262.42 128.18L262.58 128.19L262.73 128.18L262.89 128.17L263.05 128.15L263.2 128.13L263.35 128.09L263.5 128.05L263.64 128L263.78 127.95L263.92 127.88L264.05 127.82L264.18 127.74L264.3 127.66L264.43 127.57L264.54 127.48L264.66 127.39L264.76 127.28L264.86 127.18L264.96 127.06L265.05 126.95L265.14 126.83L265.22 126.7L265.29 126.57L265.36 126.44L265.43 126.3L265.48 126.16L265.53 126.02L265.57 125.87L265.61 125.72L265.63 125.57L265.65 125.41L265.66 125.26L265.67 125.1L265.73 122.89L265.89 120.71L266.17 118.56L266.55 116.45L267.03 114.37L267.61 112.33L268.29 110.34L269.06 108.39L269.92 106.49L270.87 104.64L271.9 102.84L273.02 101.1L274.22 99.41L275.49 97.79L276.84 96.23L278.26 94.74L279.75 93.32L281.31 91.97L282.94 90.69L284.62 89.49L286.36 88.37L288.16 87.34L290.01 86.39L291.92 85.52L293.87 84.75L295.87 84.07L297.91 83.49L299.99 83.01L302.1 82.62L304.26 82.35L306.44 82.17L308.65 82.11L308.81 82.11L308.97 82.1L309.12 82.08L309.28 82.05L309.43 82.01L309.57 81.97L309.72 81.92L309.86 81.87L309.99 81.81L310.13 81.74L310.26 81.66L310.38 81.58L310.5 81.5L310.62 81.41L310.73 81.31L310.84 81.21L310.94 81.1L311.04 80.99L311.13 80.87L311.22 80.75L311.3 80.62L311.37 80.49L311.44 80.36L311.5 80.22L311.56 80.08L311.61 79.94L311.65 79.79L311.68 79.64L311.71 79.49L311.73 79.34L311.74 79.18L311.74 79.02L311.74 78.86L311.73 78.7L311.71 78.55L311.68 78.4L311.65 78.25L311.61 78.1L311.56 77.96L311.5 77.82L311.44 77.68L311.37 77.55L311.3 77.42L311.22 77.29L311.13 77.17L311.04 77.05L310.94 76.94L310.84 76.83L310.73 76.73L310.62 76.63L310.5 76.54L310.38 76.46L310.26 76.38L310.13 76.3L309.99 76.23L309.86 76.17L309.72 76.12L309.57 76.07L309.43 76.02L309.28 75.99L309.12 75.96L308.97 75.94L308.81 75.93L308.65 75.93L306.12 75.99L303.63 76.18Z" id="a396HezCYH"></path><path d="M308.6 135.84C314.53 135.84 319.34 131.03 319.34 125.1C319.34 119.17 314.53 114.36 308.6 114.36C308.6 114.36 308.6 114.36 308.6 114.36C302.67 114.36 297.86 119.17 297.86 125.1C297.86 131.03 302.67 135.84 308.6 135.84Z" id="a5mOXUdRH2"></path><path d="M390.14 127.53C390.14 123.54 386.91 120.31 382.92 120.31C378.94 120.31 375.7 123.54 375.7 127.53C375.7 127.53 375.7 127.53 375.7 127.53C375.7 129.92 375.7 141.88 375.7 163.4L371.07 163.4C371.07 137 371.07 122.34 371.07 119.4C371.07 115.42 367.84 112.18 363.85 112.18C359.86 112.18 356.63 115.42 356.63 119.4C356.63 119.4 356.63 119.4 356.63 119.4C356.63 122.34 356.63 137 356.63 163.4L352 163.4C352 145.14 352 134.99 352 132.96C352 128.98 348.77 125.74 344.78 125.74C340.79 125.74 337.56 128.98 337.56 132.96C337.56 136.98 337.56 157.07 337.56 193.23C335.26 191.26 333.98 190.17 333.73 189.95C333.6 189.95 320.01 178.46 313.21 184.1C306.97 189.27 308.5 193.29 308.86 194.01C309.36 194.58 311.89 197.45 316.44 202.6L336.29 225.09L409.27 225.09C409.27 176.37 409.27 149.3 409.27 143.88C409.27 139.9 406.04 136.66 402.05 136.66C398.06 136.66 394.83 139.9 394.83 143.88C394.83 143.88 394.83 143.88 394.83 143.88C394.83 145.19 394.83 151.69 394.83 163.4L390.14 163.4L390.14 143.88C390.14 134.07 390.14 128.62 390.14 127.53Z" id="c6qtzrNUN"></path><path d="M196.39 266.96C196.39 266.96 196.39 266.96 196.39 266.96C196.39 106.78 196.39 17.8 196.39 0C196.39 0 196.39 0 196.39 0C344.72 0 427.13 0 443.61 0C443.61 0 443.61 0 443.61 0C443.61 160.17 443.61 249.16 443.61 266.96C443.61 266.96 443.61 266.96 443.61 266.96C295.28 266.96 212.87 266.96 196.39 266.96Z" id="d1v60yqsD"></path></defs><g><g><use xlink:href="#a396HezCYH" opacity="1" fill="#000000" fill-opacity="1"></use><g><use xlink:href="#a396HezCYH" opacity="1" fill-opacity="0" stroke="#000000" stroke-width="1" stroke-opacity="0"></use></g></g><g><use xlink:href="#a5mOXUdRH2" opacity="1" fill="#000000" fill-opacity="1"></use><g><use xlink:href="#a5mOXUdRH2" opacity="1" fill-opacity="0" stroke="#000000" stroke-width="1" stroke-opacity="0"></use></g></g><g><use xlink:href="#c6qtzrNUN" opacity="1" fill="#000000" fill-opacity="1"></use><g><use xlink:href="#c6qtzrNUN" opacity="1" fill-opacity="0" stroke="#000000" stroke-width="1" stroke-opacity="0"></use></g></g><g><use xlink:href="#d1v60yqsD" opacity="1" fill="#000000" fill-opacity="0"></use><g><use xlink:href="#d1v60yqsD" opacity="1" fill-opacity="0" stroke="#000000" stroke-width="1" stroke-opacity="1"></use></g></g></g></svg>